<svg width="90" height="90" viewBox="0 0 90 90" fill="none" xmlns="http://www.w3.org/2000/svg">
<path fill-rule="evenodd" clip-rule="evenodd" d="M37.2938 22.5113C37.5385 22.4842 37.7862 22.5055 38.0227 22.5742C38.2592 22.6428 38.4799 22.7574 38.6721 22.9113C38.8643 23.0652 39.0243 23.2555 39.143 23.4712C39.2617 23.687 39.3367 23.924 39.3638 24.1688L41.2388 41.0438C41.2659 41.2885 41.2445 41.5362 41.1758 41.7727C41.1072 42.0092 40.9926 42.2298 40.8387 42.422C40.6848 42.6143 40.4945 42.7743 40.2788 42.893C40.063 43.0117 39.826 43.0867 39.5813 43.1138C39.087 43.1685 38.5912 43.0246 38.203 42.7137C37.8148 42.4029 37.566 41.9506 37.5113 41.4563L35.6363 24.5813C35.6092 24.3365 35.6305 24.0888 35.6992 23.8523C35.7678 23.6158 35.8823 23.3952 36.0363 23.203C36.1902 23.0107 36.3805 22.8507 36.5962 22.732C36.812 22.6134 37.049 22.5383 37.2938 22.5113Z" fill="#FE950B"/>
<path fill-rule="evenodd" clip-rule="evenodd" d="M25.1025 20.625C25.3894 32.0756 29.25 34.1812 38.1112 35.625L37.5506 30.1219L36.7763 28.2694C39.8006 27.0056 42.3469 26.2631 44.9888 26.25C47.6381 26.2369 50.1956 26.955 53.2463 28.2806L52.4494 30.1144L51.8869 35.625C60.75 34.1812 64.6106 32.0756 64.8994 20.625C77.1413 20.625 82.5 32.8125 82.5 50.625C68.7506 47.1094 60.9375 55.3125 60.9375 62.625H50.625L45 73.125L39.375 62.625H29.0625C29.0625 55.3125 21.2494 47.1094 7.5 50.625C7.5 32.8125 12.8569 20.625 25.1025 20.625Z" fill="#FE950B"/>
<path fill-rule="evenodd" clip-rule="evenodd" d="M52.7063 22.5113C52.4615 22.4842 52.2138 22.5055 51.9773 22.5742C51.7408 22.6428 51.5202 22.7574 51.328 22.9113C51.1357 23.0652 50.9757 23.2555 50.857 23.4712C50.7383 23.687 50.6633 23.924 50.6363 24.1688L48.7613 41.0438C48.7066 41.5381 48.8505 42.0338 49.1613 42.422C49.4721 42.8102 49.9245 43.0591 50.4188 43.1138C50.9131 43.1685 51.4088 43.0246 51.797 42.7137C52.1852 42.4029 52.4341 41.9506 52.4888 41.4563L54.3638 24.5813C54.3909 24.3365 54.3695 24.0888 54.3009 23.8523C54.2322 23.6158 54.1177 23.3952 53.9638 23.203C53.8098 23.0107 53.6196 22.8507 53.4038 22.732C53.188 22.6134 52.951 22.5383 52.7063 22.5113Z" fill="#FE950B"/>
</svg>
