<svg width="80" height="80" viewBox="0 0 80 80" fill="none" xmlns="http://www.w3.org/2000/svg">
<path d="M39.8359 69.6953L38.3594 40L26.875 36.7188H7.18751C6.25782 36.7188 5.47907 36.4038 4.85126 35.7738C4.22345 35.1438 3.90845 34.365 3.90626 33.4375C3.90407 32.51 4.21907 31.7313 4.85126 31.1013C5.48345 30.4713 6.2622 30.1563 7.18751 30.1563H23.5938L44.1016 15.4727C44.8125 14.9805 45.5781 14.7891 46.3984 14.8985C47.2188 15.0078 47.9297 15.3906 48.5313 16.0469C49.1328 16.8125 49.3789 17.646 49.2695 18.5472C49.1602 19.4485 48.7227 20.201 47.957 20.8047L37.2109 28.5156H46.5625L70.0234 14.9805C70.625 14.5977 71.2955 14.4883 72.0349 14.6524C72.7742 14.8164 73.4436 15.2539 74.043 15.9649C74.6445 16.6211 74.8906 17.3736 74.7813 18.2224C74.6719 19.0711 74.2617 19.7678 73.5508 20.3125L48.2031 40L46.7266 69.6953C46.6719 70.5703 46.3164 71.3086 45.6602 71.9102C45.0039 72.5117 44.1563 72.8125 43.1172 72.8125C42.2422 72.8125 41.4908 72.5117 40.863 71.9102C40.2352 71.3086 39.8928 70.5703 39.8359 69.6953ZM20.3125 26.875C18.5078 26.875 16.9634 26.233 15.6794 24.9489C14.3953 23.6649 13.7522 22.1194 13.75 20.3125C13.7478 18.5056 14.3909 16.9613 15.6794 15.6794C16.9678 14.3975 18.5122 13.7544 20.3125 13.75C22.1128 13.7456 23.6583 14.3888 24.9489 15.6794C26.2395 16.97 26.8816 18.5144 26.875 20.3125C26.8684 22.1106 26.2264 23.6561 24.9489 24.9489C23.6714 26.2417 22.1259 26.8838 20.3125 26.875Z" fill="#FE950B"/>
</svg>
