<svg width="80" height="80" viewBox="0 0 80 80" fill="none" xmlns="http://www.w3.org/2000/svg">
<g clip-path="url(#clip0_9_2102)">
<path d="M11.0759 4.42708C7.83535 4.41291 5.68154 4.48221 5.68154 4.48221C5.17052 4.49836 4.68584 4.71268 4.33002 5.07982C3.9742 5.44695 3.77515 5.93811 3.775 6.44938V10.4688H2.57013C2.05425 10.4688 1.5595 10.6737 1.19471 11.0385C0.829932 11.4033 0.625 11.898 0.625 12.4139L0.625 67.5862C0.625 68.102 0.829932 68.5968 1.19471 68.9616C1.5595 69.3263 2.05425 69.5313 2.57013 69.5313H36.7713C38.8392 70.9228 41.5018 70.6039 43.2287 69.5313H77.4299C77.9458 69.5313 78.4405 69.3263 78.8053 68.9616C79.1701 68.5968 79.375 68.102 79.375 67.5862V12.4139C79.375 11.898 79.1701 11.4033 78.8053 11.0385C78.4405 10.6737 77.9458 10.4688 77.4299 10.4688H76.225V6.44938C76.2248 5.93798 76.0257 5.44671 75.6697 5.07955C75.3137 4.71239 74.8288 4.49816 74.3177 4.48221C74.3177 4.48221 72.1646 4.41291 68.9233 4.42708C65.6835 4.44126 61.357 4.53812 57.01 4.87044C52.663 5.20119 48.3018 5.75245 44.8376 6.76202C43.1051 7.26602 41.5884 7.87003 40.3473 8.76148C40.2292 8.84653 40.1142 8.94025 40 9.03396C39.8871 8.93955 39.7713 8.84868 39.6527 8.76148C38.4116 7.87003 36.8949 7.26681 35.1624 6.76202C31.6982 5.75323 27.337 5.20198 22.99 4.87044C18.643 4.53891 14.3165 4.44126 11.0759 4.42708ZM68.9146 6.39583C72.1198 6.38166 74.2562 6.44938 74.2562 6.44938V61.5744C74.2562 61.5744 44.3911 60.4136 40.4308 66.5246C40.1559 66.9357 39.8819 66.9617 39.6078 66.586C35.8058 60.4065 5.74375 61.5744 5.74375 61.5744V6.44938C5.74375 6.44938 7.88024 6.38323 11.0854 6.39741C20.7007 6.43993 39.9386 7.21641 40 12.7494C40.0614 7.21641 59.2993 6.43836 68.9146 6.39583ZM4.51525 63.1132C4.88458 63.4082 5.34775 63.5606 5.82014 63.5423C5.82014 63.5423 14.2606 63.2179 22.6561 63.8298C26.8535 64.1353 31.0446 64.6905 34.0103 65.5623C34.093 65.5875 34.1638 65.615 34.245 65.6402H4.51604L4.51525 63.1132ZM75.4832 63.1132V65.6402H45.7543C45.8354 65.615 45.9062 65.5875 45.9889 65.5631C48.9547 64.6905 53.1457 64.1353 57.3431 63.8298C65.7379 63.2179 74.1799 63.5423 74.1799 63.5423C74.652 63.5604 75.1141 63.4081 75.4832 63.1132Z" fill="#FE950B"/>
<path d="M68.9068 8.36613C65.7371 8.3803 61.5153 8.47401 57.3085 8.79531C53.1017 9.11661 48.9035 9.67889 45.937 10.5428C44.4541 10.9743 43.2878 11.4972 42.6437 11.9595C42.0003 12.421 41.9704 12.6092 41.9688 12.7706V22.0088C42.0042 21.9899 42.0475 21.9694 42.0562 21.9537C42.0656 21.9346 42.0792 21.9179 42.096 21.9048C42.1128 21.8917 42.1323 21.8826 42.1531 21.8781C42.2751 21.8513 42.4547 21.9647 42.5594 22.1647C42.6878 22.4088 42.6886 22.4506 42.5752 22.653C42.5059 22.7758 42.3263 22.9601 42.1767 23.0609C42.079 23.127 42.031 23.1814 41.9688 23.2396V35.7223C42.1105 35.4876 42.1373 35.2451 42.0507 34.8978C41.9641 34.5529 41.9719 34.5025 42.2105 34.0245C42.4429 33.5575 42.6681 33.2409 43.0965 32.7818C43.1928 32.6701 43.2505 32.5304 43.2611 32.3833C43.2611 32.2416 43.3579 32.0486 43.5312 31.8462C44.0226 31.2729 44.0738 30.9438 43.6572 31.0178C43.3973 31.065 43.3997 31.0831 43.3886 30.0964C43.3839 29.6869 43.417 29.4727 43.4942 29.3955C43.5635 29.3262 43.8344 29.2585 44.1974 29.2183L44.788 29.1522V28.8443C44.788 28.4726 44.588 28.1544 44.3762 28.1922C44.1832 28.2269 44.0832 28.0017 44.2344 27.8725C44.3228 27.8103 44.4298 27.7803 44.5376 27.7875C44.7014 27.7993 44.7219 27.7772 44.6833 27.6292C44.6455 27.4843 44.6675 27.4575 44.814 27.4693C44.981 27.4819 45.3432 27.2252 45.2605 27.1527C45.2196 27.1173 44.4967 27.3622 44.1509 27.5276C43.9619 27.6189 43.9612 27.6142 44.0895 27.3984C44.1887 27.2323 44.1998 27.1543 44.1313 27.0803C44.0627 27.0063 44.0777 26.9488 44.1943 26.8362C44.3124 26.7204 44.3203 26.6913 44.2265 26.7031C44.1415 26.7149 44.1635 26.6582 44.3006 26.5141C44.4738 26.3329 44.4817 26.2983 44.3746 26.2046C44.2667 26.1117 44.2407 26.118 44.1407 26.2621C44.0849 26.3401 44.0438 26.4276 44.0194 26.5204C44.0139 26.5731 44.0053 26.692 43.9974 26.7865C43.9895 26.9062 43.8903 27.0047 43.6651 27.1189C43.2422 27.3323 43.2083 27.3354 43.1595 27.1464C43.1359 27.0574 43.1532 26.9787 43.1981 26.9708C43.2437 26.9629 43.2579 26.8708 43.2296 26.7606C43.1626 26.492 43.2516 26.2644 43.4107 26.3007C43.48 26.3164 43.5115 26.3046 43.4792 26.277C43.3847 26.1943 43.6603 25.8912 43.8178 25.9069C43.915 25.9169 43.978 25.8604 44.0068 25.7376C44.0305 25.6368 44.0186 25.5596 43.9793 25.5667C43.9005 25.5809 43.9675 25.1021 44.0793 24.8532C44.1194 24.7627 44.2423 24.6768 44.3588 24.6564C44.525 24.6264 44.5589 24.6532 44.525 24.7957C44.4935 24.9265 44.5203 24.9643 44.6345 24.9438C44.8077 24.9123 44.8274 25.0123 44.7022 25.2808C44.6392 25.4163 44.6447 25.4935 44.7203 25.5762C44.8432 25.7092 44.9936 25.9471 45.1062 26.1896C45.1519 26.2873 45.244 26.3786 45.3125 26.3944C45.4054 26.4148 45.4228 26.4952 45.385 26.7188C45.3353 27.0063 45.3393 27.0118 45.5236 26.8897C45.6283 26.8196 45.7693 26.6338 45.8354 26.4739C45.9252 26.2589 46.0331 26.151 46.2567 26.0526C46.5166 25.9392 46.5568 25.8872 46.5568 25.6825C46.5568 25.551 46.5229 25.4494 46.478 25.4572C46.3016 25.4887 46.3977 24.9784 46.6095 24.7666C46.7253 24.6501 46.8481 24.55 46.8812 24.5437C47.0001 24.5225 47.023 25.0635 46.9103 25.2186C46.6898 25.5226 46.8277 25.6943 47.2135 25.5943C47.3332 25.5628 47.4537 25.5722 47.4813 25.614C47.5136 25.6636 47.6073 25.6376 47.7475 25.5391C48.0869 25.299 48.4058 25.18 48.4058 25.295C48.4058 25.5234 48.7161 25.0257 48.7562 24.7312C48.8397 24.1216 48.9067 23.8444 48.9775 23.8318C49.0169 23.824 49.1216 23.731 49.2098 23.6224C49.3307 23.4877 49.4942 23.3987 49.6729 23.3704C49.8383 23.3397 50.0257 23.2696 50.0911 23.2152C50.3297 23.0144 49.9241 23.0412 49.5548 23.2499C49.2287 23.4349 49.1831 23.4444 49.0035 23.353C48.8964 23.2979 48.8043 23.2302 48.8043 23.2011L48.7649 22.7412C48.7342 22.3758 48.757 22.2978 48.9901 21.9773C49.5264 21.2378 49.5469 21.1992 49.4453 21.089C49.415 21.0592 49.3784 21.0365 49.3382 21.0228C49.298 21.009 49.2552 21.0044 49.213 21.0094C49.0626 21.0362 48.8555 21.4567 48.935 21.5764C48.9618 21.6182 48.8169 21.8426 48.6137 22.0749C48.1507 22.6026 48.0333 22.9821 48.2515 23.2349C48.4657 23.4822 48.4389 23.9287 48.2074 23.9704C48.1475 23.9807 48.0656 24.2012 48.0105 24.5099C47.9333 24.9351 47.8853 25.0375 47.7585 25.0611C47.6719 25.0761 47.6026 25.1265 47.6026 25.173C47.6026 25.2194 47.5293 25.269 47.4411 25.2848C47.3529 25.3005 47.2813 25.3525 47.2813 25.399C47.2813 25.5384 47.0387 25.5368 46.9844 25.3974C46.9544 25.3202 46.9883 25.2163 47.071 25.1391C47.2001 25.017 47.1994 24.9816 47.0552 24.5595L46.9017 24.1106L46.6576 24.3681C46.2402 24.8099 46.0354 24.7359 45.9512 24.1146C45.907 23.7895 45.892 23.4611 45.9063 23.1333C45.911 23.0727 45.9512 23.0388 45.9953 23.0593C46.0394 23.0806 46.0772 23.0467 46.0772 22.9861C46.078 22.9246 46.2268 22.7356 46.4063 22.564C46.6835 22.3002 47.2348 21.456 47.2427 21.2882C47.2474 21.1646 47.6364 20.3645 47.6963 20.3542C47.7325 20.3479 47.7624 20.2936 47.7624 20.2322C47.7624 20.1715 47.827 20.0361 47.9042 19.9329C47.9813 19.829 48.0924 19.6384 48.1507 19.5093C48.2089 19.3809 48.3798 19.1824 48.5318 19.0698C48.6838 18.9572 48.809 18.8312 48.809 18.7911C48.809 18.7509 48.8917 18.7281 48.9949 18.7359C49.1697 18.7509 49.4461 18.4973 49.3902 18.3745C49.3784 18.3493 49.45 18.3044 49.55 18.276C50.1446 18.1028 50.2572 18.1012 50.4525 18.2595C50.6478 18.4162 50.651 18.4312 50.5155 18.6131C50.3785 18.7981 50.3816 18.7981 50.6415 18.6926C50.8707 18.6005 50.9148 18.6084 50.9526 18.7533C50.9817 18.8635 51.0613 18.9108 51.1849 18.8879C51.2888 18.8698 51.4936 18.9399 51.6385 19.0438C51.7842 19.147 52.0039 19.2801 52.1275 19.3407C52.5292 19.5337 52.5685 19.9723 52.2126 20.2802C52.0472 20.4228 51.9685 20.4409 51.6401 20.4062C51.4306 20.3842 51.2054 20.3338 51.1392 20.296C51.0536 20.2461 51.0589 20.271 51.155 20.3708C51.229 20.4495 51.2912 20.6385 51.2833 20.7889C51.2755 21.0882 51.4889 21.3638 51.696 21.3229C51.8054 21.3016 51.8023 21.289 51.6818 21.2362C51.6046 21.2032 51.5416 21.0827 51.5416 20.9693C51.5416 20.733 51.5968 20.7078 51.8173 20.8433C52.0409 20.9803 52.1771 20.9354 52.126 20.7401C52.0653 20.5054 52.4843 19.9983 52.7245 20.0172C52.8953 20.0306 52.9001 20.0148 52.8536 19.5896C52.8268 19.3462 52.7693 19.1061 52.726 19.0557C52.6685 18.9895 52.689 18.9572 52.7985 18.9391C53.2741 18.858 53.549 19.1281 53.2663 19.3959C53.1907 19.4683 53.1497 19.5667 53.1812 19.614C53.2702 19.7479 53.4537 19.6809 53.5072 19.4943C53.5545 19.3321 54.116 18.7871 54.2632 18.7603C54.3026 18.7533 54.3798 18.6832 54.4349 18.6036C54.4949 18.521 54.5808 18.4608 54.679 18.4327C54.7877 18.4138 54.8113 18.4564 54.7783 18.6052C54.742 18.7666 54.7546 18.7808 54.8428 18.6792C54.9213 18.5999 55.0212 18.5452 55.1303 18.5217C55.2295 18.5044 55.3342 18.4453 55.3642 18.3902C55.3941 18.3351 55.498 18.2957 55.598 18.3036C55.6965 18.3115 55.8004 18.291 55.8264 18.2579C55.9036 18.1634 55.728 17.9091 55.6028 17.9319C55.4728 17.9547 55.3634 17.6823 55.4421 17.5334C55.4789 17.4673 55.5542 17.4778 55.6681 17.5649C55.7626 17.6382 56.0225 17.7279 56.2422 17.7657C56.4627 17.8027 56.7832 17.9272 56.9541 18.0414C57.2549 18.2406 57.2636 18.2414 57.2085 18.0571C57.177 17.9524 57.0951 17.8303 57.0281 17.787C56.9473 17.7345 56.9237 17.634 56.9573 17.4854C56.9856 17.3625 56.9667 17.1964 56.9132 17.116C56.8313 16.994 56.8502 16.9113 57.0329 16.6042C57.1518 16.4034 57.2479 16.1584 57.2479 16.06C57.2479 15.9616 57.2967 15.8222 57.3542 15.7505C57.4207 15.6631 57.4738 15.5662 57.5117 15.4631C57.5408 15.3765 57.6172 15.2977 57.6802 15.2859C57.855 15.2544 57.9031 15.4828 57.7479 15.6056C57.6329 15.697 57.6455 15.7088 57.8314 15.6781C58.0235 15.6466 58.0519 15.6749 58.0519 15.8994C58.0519 16.0411 58.0165 16.234 57.9731 16.3285C57.9164 16.449 57.9196 16.5152 57.985 16.5459C58.0393 16.5711 58.0558 16.5553 58.0267 16.5105C57.9983 16.4671 58.0558 16.3112 58.1543 16.1624C58.2527 16.0143 58.322 15.8301 58.3094 15.7529C58.2968 15.6773 58.322 15.5836 58.3661 15.5481C58.4559 15.4733 58.5913 15.6875 58.5787 15.8844C58.5669 16.0671 58.7126 16.1206 58.8126 15.971C58.9819 15.7167 59.2229 15.6733 59.4505 15.8529C59.571 15.949 59.7064 16.0191 59.7553 16.0104C59.8033 16.0025 59.7521 15.9222 59.6387 15.8324C59.5033 15.7253 59.4119 15.5403 59.3765 15.3001C59.315 14.8764 59.3213 14.8709 60.0088 14.6583C60.442 14.5244 60.5601 14.4228 60.3829 14.3401C60.2553 14.2803 60.2868 13.8936 60.4215 13.8692C60.4924 13.8566 60.5215 13.803 60.4931 13.7314C60.4616 13.6503 60.4971 13.603 60.6073 13.5833C60.6955 13.5676 60.7885 13.4983 60.8121 13.4298C60.8357 13.3612 60.9932 13.2321 61.1625 13.1431C61.331 13.0549 61.5043 12.9297 61.5484 12.8651C61.6712 12.6864 62.0697 12.5446 62.1981 12.6328C62.2611 12.6769 62.3713 12.6714 62.4517 12.6202C62.5296 12.5714 62.684 12.5233 62.7942 12.5147C62.9564 12.5013 62.9753 12.4816 62.8942 12.4084C62.7415 12.2706 62.7737 12.1879 62.9927 12.1485C63.1344 12.1233 63.1777 12.0792 63.1454 11.9957C63.0887 11.8516 63.3974 11.261 63.6109 11.1027C63.6368 11.084 63.6655 11.0694 63.6959 11.0594C63.7493 11.0422 63.8059 11.0378 63.8613 11.0468C64.0267 11.0728 64.1708 11.2027 64.133 11.361C64.107 11.4689 64.1338 11.5216 64.2078 11.5083C64.2716 11.4972 64.3456 11.5421 64.3708 11.6067C64.3999 11.6815 64.5251 11.7075 64.7094 11.676C65.1504 11.6012 65.4599 11.8689 65.5064 12.3651C65.5442 12.7722 65.5001 12.8557 64.9079 13.4912C64.7756 13.6337 64.7748 13.6416 64.9244 13.6447C65.011 13.6463 65.1118 13.6857 65.1449 13.7322C65.1874 13.7928 65.2276 13.777 65.2843 13.677C65.352 13.5589 65.3725 13.5636 65.4127 13.7109C65.452 13.8558 65.4946 13.8684 65.6442 13.7818C65.893 13.6384 66.4931 13.6936 66.438 13.8542C66.4102 13.934 66.4907 13.9755 66.6797 13.9786C67.0247 13.9849 67.1333 13.9038 67.1333 13.6416C67.1333 13.366 67.2467 13.2959 67.5287 13.399C67.6602 13.4463 67.8358 13.4739 67.9193 13.4589C68.2138 13.4061 68.3445 13.6542 68.324 14.2259C68.3075 14.6685 68.3311 14.7717 68.4626 14.8488C68.6083 14.9355 68.6249 14.9197 68.6871 14.652C68.7784 14.259 68.8698 14.1637 68.9761 14.3543C69.0454 14.4779 69.1178 14.4937 69.2958 14.4252C69.4313 14.3724 69.5494 14.37 69.5833 14.422C69.6258 14.4858 69.6754 14.4716 69.7723 14.3614C69.8455 14.2795 69.9431 14.2117 69.9865 14.2117C70.0298 14.2133 70.0762 14.1456 70.0912 14.0621C70.1062 13.9779 70.0802 13.9149 70.0329 13.9235C69.9857 13.9314 69.9463 13.8818 69.9463 13.8133C69.9463 13.7424 70.0156 13.6755 70.1006 13.6605C70.1849 13.6447 70.2684 13.5873 70.2849 13.5329C70.3322 13.3762 71.8615 13.4975 71.9552 13.6652C71.9969 13.7385 72.0103 13.8243 71.9843 13.8558C71.9591 13.8873 72.0316 13.9212 72.1474 13.9306C72.2167 13.9369 72.2513 13.959 72.2875 13.9818V8.39763C71.3992 8.37951 70.933 8.35589 68.9068 8.36613ZM63.0399 10.8751C63.1321 10.8586 63.1848 10.8869 63.158 10.9381C63.0927 11.0586 62.8745 11.098 62.8745 10.9885C62.8745 10.942 62.9494 10.8909 63.0399 10.8751ZM70.4464 11.1429C70.5078 11.1484 70.5999 11.1885 70.7535 11.2689C70.9519 11.3712 71.2047 11.4421 71.3158 11.4256C71.5331 11.3941 71.8883 11.4649 71.7568 11.5146C71.7127 11.5311 71.7843 11.5484 71.9166 11.5539C72.1828 11.5665 72.2324 11.7358 72.0214 11.913C71.8505 12.0571 71.3158 11.9075 71.3158 11.7162C71.3158 11.5324 71.1937 11.5807 70.9496 11.8611C70.8322 11.9949 70.6409 12.1217 70.5235 12.1422C70.4062 12.1627 70.1951 12.2249 70.0558 12.2808C69.84 12.3666 69.7809 12.3517 69.6652 12.1863C69.4132 11.8296 69.673 11.1783 69.977 11.2019C70.0257 11.2059 70.0719 11.2249 70.1093 11.2563C70.2408 11.3578 70.2629 11.3547 70.3251 11.2271C70.355 11.1657 70.3849 11.1366 70.4464 11.1421M69.3848 11.5106C69.4289 11.5027 69.4667 11.6098 69.4667 11.7492C69.4667 11.8878 69.4289 12.0091 69.3848 12.017C69.3407 12.0249 69.3053 11.9178 69.3053 11.7784C69.3053 11.6398 69.3407 11.5185 69.3848 11.5106ZM70.2755 12.4792C70.3574 12.495 70.429 12.6084 70.3802 12.6997C70.3582 12.7407 70.407 12.7627 70.4897 12.747C70.6787 12.7139 70.8322 12.8439 70.8322 13.0399C70.8322 13.1565 70.7724 13.1982 70.5708 13.2274C70.4378 13.2466 70.3035 13.2545 70.1692 13.251C70.0172 13.2352 69.9746 13.0911 70.1156 13.0659C70.1692 13.0565 70.1833 12.9612 70.151 12.8147C70.1195 12.6706 70.1353 12.5493 70.1944 12.5013C70.2053 12.4917 70.2184 12.4849 70.2324 12.4812C70.2465 12.4775 70.2612 12.4763 70.2755 12.4792ZM57.1376 12.8604C57.2549 12.8281 57.3392 12.8777 57.3739 13.0155C57.4502 13.3187 57.2967 13.54 56.7777 13.8771C56.4966 14.0598 56.1934 14.3354 56.0453 14.5464L55.6335 15.1371C55.5453 15.2631 55.3626 15.6324 55.2271 15.96C54.9491 16.6333 54.9539 17.0121 55.2429 17.283C55.3334 17.3696 55.3807 17.4688 55.3421 17.5011C55.2508 17.5767 54.7893 17.6445 54.6948 17.5956C54.6546 17.5759 54.5971 17.4602 54.5672 17.3381C54.531 17.189 54.4598 17.1244 54.3538 17.1444C54.2365 17.1649 54.1931 17.1153 54.1931 16.9562C54.1931 16.8341 54.2294 16.7569 54.275 16.7782C54.3514 16.8152 54.3877 16.6971 54.3593 16.4829C54.3514 16.4223 54.4097 16.2608 54.4885 16.123C54.5672 15.9852 54.6223 15.8301 54.6121 15.7781C54.6011 15.7269 54.6696 15.534 54.7641 15.3489C54.8609 15.1599 54.9176 14.9433 54.8932 14.8504C54.8654 14.7412 54.8956 14.6614 54.9838 14.611C55.0578 14.5693 55.2854 14.3251 55.4886 14.0692C55.8036 13.6739 55.9028 13.5991 56.1517 13.5621C56.3785 13.5282 56.5045 13.4463 56.71 13.1998C56.8706 13.0084 57.0203 12.8927 57.1376 12.8612M48.9933 13.3825C49.133 13.3643 49.2745 13.3989 49.3902 13.4794L49.5611 13.6164L49.3729 13.8605C49.1917 14.096 48.9067 14.2464 49.0106 14.0535C49.0374 14.0023 48.9917 13.9723 48.9082 13.9873C48.7877 14.0086 48.7562 13.9534 48.7641 13.718C48.7688 13.4526 48.7925 13.4187 48.9933 13.3825ZM48.3247 13.5258C48.4271 13.5227 48.4877 13.5321 48.4877 13.5565C48.4873 13.5797 48.4791 13.6021 48.4644 13.6199C48.4496 13.6378 48.4293 13.6502 48.4066 13.655C48.3625 13.6629 48.3263 13.7243 48.3263 13.792C48.3263 13.8597 48.2648 14.1369 48.1892 14.407C48.0436 14.9292 47.879 15.0654 47.7955 14.7331C47.7679 14.6228 47.7002 14.5401 47.6435 14.5504C47.512 14.574 47.4206 14.233 47.534 14.1393C47.5876 14.0952 47.5907 14.0621 47.5419 14.0519C47.4986 14.0424 47.4372 13.9534 47.4065 13.855C47.3513 13.681 47.3671 13.6723 47.9183 13.5731V13.5747C48.0814 13.5463 48.2231 13.529 48.3247 13.5258ZM64.6889 13.9763C64.6942 13.9569 64.67 13.9626 64.6165 13.9936C64.5354 14.0385 64.4354 14.081 64.3952 14.0881C64.3543 14.096 64.3212 14.1574 64.3212 14.2267C64.3212 14.3921 64.3409 14.385 64.57 14.1283C64.6155 14.0826 64.6559 14.0316 64.6889 13.9763ZM59.8474 16.4616C59.8256 16.5123 59.8115 16.5659 59.8057 16.6207C59.7757 16.7782 59.786 16.8333 59.8372 16.7711C59.8826 16.6973 59.8994 16.6093 59.8844 16.5238C59.8729 16.4677 59.8605 16.4469 59.8474 16.4616ZM58.0952 16.7128C58.0661 16.7483 58.0535 16.9223 58.0527 17.246C58.0511 17.8791 58.1669 18.1918 58.3063 17.9343C58.3456 17.8618 58.3204 17.8161 58.2401 17.8122C58.133 17.8075 58.1196 17.7224 58.159 17.32C58.185 17.053 58.1708 16.7845 58.1291 16.7231C58.1165 16.7047 58.1052 16.7013 58.0952 16.7128ZM58.211 18.2264C58.1669 18.2343 58.1306 18.313 58.1306 18.4028C58.1306 18.4926 58.0952 18.5973 58.0511 18.6336C57.9708 18.6997 57.9369 18.9486 58.0094 18.9352C58.0306 18.9312 58.1015 18.8068 58.1692 18.658C58.3118 18.3445 58.3244 18.2059 58.211 18.2264ZM53.8136 18.2878C53.8514 18.2815 53.8923 18.3075 53.9632 18.3611C54.1049 18.4713 54.1049 18.4894 53.9789 18.6564C53.8419 18.8407 53.6986 18.9045 53.6041 18.8226C53.5135 18.7438 53.5435 18.5713 53.6797 18.4052C53.7395 18.3312 53.7758 18.2934 53.8136 18.2871M57.8432 19.0147C57.8038 19.0177 57.7653 19.0282 57.7298 19.0454C57.6416 19.0848 57.5684 19.132 57.5684 19.1494C57.5684 19.1667 57.6408 19.1683 57.7298 19.1525C57.8188 19.1368 57.8897 19.0895 57.8897 19.0486C57.8886 19.027 57.8731 19.0158 57.8432 19.0147ZM72.0615 19.5652C72.0174 19.5612 71.9418 19.5841 71.8174 19.6313C71.6512 19.6943 71.3307 19.7739 71.1047 19.8093C70.6968 19.8739 70.6913 19.8794 70.2684 20.4771C70.0337 20.8078 69.7313 21.2016 69.5943 21.352C69.4108 21.5544 69.3817 21.6205 69.4809 21.604C69.5756 21.599 69.6686 21.6306 69.7408 21.6922C69.8101 21.7528 69.8683 21.7615 69.8683 21.7119C69.8683 21.578 70.155 21.552 70.27 21.6765C70.4015 21.8198 70.6228 21.7804 70.5613 21.6245C70.5346 21.5552 70.5613 21.4985 70.6243 21.4875C70.7527 21.4646 70.8307 21.708 70.8307 22.1348C70.8307 22.3033 70.8874 22.5915 70.9543 22.7782C71.0897 23.1577 71.063 23.2578 70.8614 23.1192C70.7369 23.0333 70.7299 23.0601 70.7755 23.4625C70.8039 23.7098 70.7944 23.8862 70.7543 23.8673C70.7149 23.8484 70.6582 23.8791 70.6283 23.935C70.5401 24.0996 70.9165 24.3933 71.0968 24.3004C71.2071 24.2445 71.2362 24.2547 71.1937 24.3343C71.1598 24.3973 71.1819 24.4713 71.2409 24.4996C71.3221 24.5367 71.2961 24.5792 71.1386 24.6697C71.0228 24.7367 70.9031 24.8406 70.8724 24.8989C70.8393 24.9603 70.7306 24.9981 70.6157 24.9887C70.4361 24.9729 70.4235 24.9887 70.4818 25.1525C70.5716 25.4061 70.5527 25.7667 70.4172 26.277C70.3227 26.6353 70.2597 26.7354 70.0652 26.8306C69.9153 26.9061 69.769 26.9883 69.6266 27.0771C69.5163 27.148 69.3895 27.2173 69.3454 27.2346C69.0879 27.3244 68.7414 27.6118 68.6666 27.7969C68.5697 28.0379 68.4209 28.0237 68.4209 27.7733C68.4209 27.6835 68.3847 27.6158 68.3406 27.6237C68.1799 27.652 68.2658 27.4536 68.5611 27.1173C68.7753 26.8716 68.9375 26.7582 69.1249 26.7251C69.3273 26.6881 69.4108 26.6259 69.4809 26.4511C69.5399 26.3046 69.636 26.2125 69.7565 26.1912C70.0054 26.1463 70.1188 25.873 70.1188 25.3171C70.1188 24.9666 70.1573 24.8131 70.2786 24.6729C70.4156 24.5154 70.4456 24.3421 70.4818 23.4601C70.5109 22.749 70.4975 22.4348 70.4369 22.4458C70.3897 22.4537 70.3495 22.5955 70.3495 22.7593C70.3495 23.1806 70.14 23.6649 69.5864 24.5233C69.2753 25.0068 69.0218 25.2084 68.7902 25.1556C68.6713 25.1296 68.4201 25.4076 68.4201 25.5667C68.4201 25.6179 68.328 25.7526 68.2154 25.866L68.0083 26.0723L68.1791 26.2865C68.2946 26.4288 68.3435 26.5949 68.3256 26.785C68.3036 27.0259 68.2555 27.0905 67.9996 27.2291L67.698 27.3921L67.687 27.0834C67.6796 26.9444 67.6796 26.8051 67.687 26.6661C67.6948 26.607 67.6484 26.5905 67.5846 26.6283C67.4208 26.7228 67.3483 26.5708 67.4515 26.3511C67.5263 26.1928 67.5145 26.1699 67.372 26.1959C67.2806 26.2117 67.116 26.303 67.0058 26.3991C66.7577 26.6141 66.7002 26.5723 66.8073 26.2589L66.8884 26.0172L66.5734 26.3109C66.2821 26.5826 66.2687 26.6141 66.386 26.7291C66.4663 26.8078 66.5451 26.8204 66.601 26.7613C66.7073 26.6511 67.1318 26.6464 67.1318 26.7558C67.1318 26.7976 67.0656 26.8692 66.9884 26.9133C66.8836 26.9831 66.7885 27.0665 66.7057 27.1614C66.5671 27.3213 66.5695 27.3449 66.7947 27.7063C66.9656 27.9796 67.0105 28.1237 66.9562 28.2355C66.9097 28.3332 66.9128 28.3844 66.964 28.3749C67.168 28.3387 66.5325 29.5247 66.1505 29.8948C66.0049 30.0358 65.667 30.2523 65.4001 30.3775C64.9764 30.5768 64.9134 30.6335 64.8984 30.8256C64.8669 31.2265 64.5346 31.4997 64.4236 31.2162C64.3905 31.132 64.4377 31.017 64.5574 30.8949C64.6598 30.7894 64.7212 30.6855 64.6952 30.6626C64.6055 30.5839 64.2779 30.7847 64.1723 30.9823C64.0778 31.1595 64.0999 31.2091 64.3944 31.4911C64.6748 31.7612 64.7204 31.8565 64.7204 32.1864C64.7204 32.5235 64.6929 32.5865 64.4984 32.7109C64.372 32.7937 64.2616 32.8985 64.1723 33.0204C64.0306 33.2456 63.8361 33.2685 63.8361 33.0598C63.8361 32.9653 63.7833 32.9023 63.714 32.9141C63.679 32.9191 63.6434 32.9125 63.6125 32.8953C63.5816 32.8781 63.5573 32.8512 63.5431 32.8188C63.5179 32.7534 63.4463 32.7085 63.3856 32.7204C63.3234 32.7314 63.2746 32.6818 63.2746 32.6125C63.2746 32.5432 63.2368 32.4943 63.1927 32.5022C63.1006 32.518 63.0848 33.2779 63.1746 33.3921C63.2061 33.4338 63.3289 33.5126 63.4447 33.5693C63.5077 33.6046 63.5628 33.6524 63.6065 33.7098C63.6503 33.7673 63.6818 33.8331 63.6991 33.9032C63.7227 34.0292 63.7676 34.2119 63.7991 34.3103C63.8447 34.4552 63.8251 34.4954 63.6967 34.5182C63.4573 34.5607 63.136 34.2568 63.0391 33.8969C62.9919 33.7205 62.8974 33.5394 62.8312 33.4937C62.7501 33.4386 62.7147 33.2653 62.7226 32.9605C62.7289 32.6534 62.6926 32.4747 62.6068 32.4006C62.528 32.3261 62.4674 32.2345 62.4296 32.1329C62.3745 31.9612 62.2682 31.9423 62.1886 32.0911C62.1611 32.1423 62.0681 32.1975 61.9823 32.2124C61.861 32.2345 61.8272 32.1809 61.8272 31.9746C61.8154 31.7951 61.7504 31.6232 61.6405 31.4808C61.5446 31.3666 61.4631 31.241 61.398 31.1068C61.3562 30.9965 61.3169 30.9871 61.2381 31.0698C61.1806 31.1304 61.0176 31.2084 60.8759 31.2454C60.7341 31.2816 60.6223 31.3588 60.6223 31.4178C60.6223 31.4761 60.512 31.6037 60.3797 31.699C60.2474 31.7943 60.1396 31.9029 60.1396 31.9423C60.1396 31.9817 59.9616 32.1738 59.7458 32.3676C59.3599 32.7125 59.3536 32.733 59.3615 33.1393C59.3654 33.4212 59.4135 33.5945 59.5119 33.6803C59.7875 33.9197 59.6734 34.4765 59.3371 34.5371C59.2221 34.5576 59.1686 34.1481 59.2599 33.952C59.4001 33.6528 59.2835 33.6614 59.063 33.9662C58.8866 34.2103 58.8504 34.2308 58.752 34.1371C58.552 33.9465 57.9621 32.5125 57.9495 32.1864C57.9385 31.9029 57.918 31.8769 57.7495 31.9407C57.5589 32.0124 57.2455 31.8494 57.2455 31.6761C57.2439 31.6257 57.1494 31.5068 57.0344 31.4131C56.8478 31.2603 56.7509 31.2548 56.1115 31.3556C55.6815 31.4241 55.3476 31.4367 55.2767 31.3871C55.1791 31.3194 55.1563 31.3296 55.1563 31.4422C55.1563 31.5178 55.283 31.6202 55.4382 31.6698C55.7658 31.7754 55.8115 32.0368 55.5579 32.3479C55.4697 32.4565 55.398 32.5715 55.398 32.6046C55.398 32.718 54.8759 33.2267 54.7334 33.2527C54.6554 33.2661 54.5302 33.3645 54.4546 33.4708C54.379 33.5772 54.2813 33.6717 54.2349 33.6803C54.1892 33.6882 54.0585 33.763 53.9443 33.8457C53.7327 33.9851 53.5128 34.1116 53.2859 34.2245C52.8946 34.4237 52.8465 34.4702 52.9213 34.5828C52.9985 34.6978 53.0552 34.6938 53.4198 34.5395C53.6458 34.445 53.9096 34.3261 54.0057 34.2765C54.5097 34.0189 53.9624 35.505 53.2765 36.2562L52.8694 36.7035L52.7371 36.8114L52.5386 37.0792C52.1945 37.5406 52.1023 37.8052 52.1433 38.2218C52.1645 38.4352 52.2086 38.6494 52.2417 38.6975C52.2748 38.7455 52.3079 39.0204 52.3157 39.3094C52.3276 39.7795 52.3063 39.8551 52.1236 40.0386C52.011 40.1512 51.8803 40.2512 51.8306 40.2615C51.7818 40.2717 51.6416 40.4056 51.5188 40.5583C51.3455 40.7749 51.3093 40.8733 51.3605 41.0088C51.4723 41.3073 51.3833 41.7412 51.1817 41.8735C51.0739 41.9443 50.9801 42.1018 50.951 42.2578C50.8959 42.561 50.3194 43.5367 50.0328 43.8147C49.8611 43.9816 48.946 44.336 48.5271 44.399C48.3294 44.4289 48.1444 44.21 48.1932 44.0037C48.2318 43.8422 47.9861 43.2744 47.7916 43.0776C47.7301 43.0146 47.6301 42.7098 47.5718 42.4003C47.4671 41.8451 47.2765 41.3844 47.1198 41.3104C46.9434 41.2277 47.0883 40.3827 47.338 40.0339C47.3727 39.9861 47.3962 39.9312 47.4069 39.8731C47.4175 39.8151 47.4149 39.7553 47.3994 39.6984C47.3644 39.5843 47.338 39.4676 47.3206 39.3495C47.2797 39.0243 47.1159 38.714 46.8355 38.4392C46.682 38.2888 46.5552 38.11 46.5552 38.0407C46.5552 38.0344 46.5434 38.0328 46.5434 38.0281L46.5599 38.0234L46.6182 37.8186L46.6733 37.5021C46.7379 37.1327 46.63 37.0319 46.3016 37.1532C46.1378 37.213 46.0559 37.1894 45.9567 37.0485C45.8047 36.8319 45.5747 36.8532 45.1377 37.1256C44.966 37.2319 44.6101 37.3698 44.3455 37.4296C44.1328 37.4777 43.9204 37.527 43.7084 37.5777C43.5052 37.6281 42.6988 37.1863 42.6161 36.9792C42.5807 36.8902 42.4216 36.709 42.2625 36.5775C42.1034 36.446 41.9751 36.2743 41.9751 36.1932C41.9751 36.1814 41.9688 36.1712 41.9672 36.1594V58.6094C42.0593 58.5779 42.1956 58.4881 42.2948 58.3889C42.4051 58.2787 42.5523 58.1779 42.6224 58.1645C42.6925 58.1511 42.7996 58.0345 42.861 57.903C43.024 57.5542 43.4209 57.1596 43.5934 57.1762C43.6737 57.184 43.7611 57.1518 43.7855 57.1053C43.81 57.058 43.9454 57.0013 44.0864 56.9761C44.2281 56.9509 44.4707 56.8399 44.625 56.732C44.8573 56.5682 44.9006 56.4942 44.8817 56.3068C44.8636 56.1256 44.8943 56.0729 45.0251 56.05C45.1148 56.0343 45.1865 56.0705 45.1865 56.1312C45.1865 56.1918 45.2377 56.3044 45.2999 56.3808C45.3991 56.5044 45.5236 56.5021 46.3843 56.3517C46.9198 56.2572 47.3584 56.1548 47.3584 56.1209C47.3584 56.0871 47.4521 55.9776 47.5671 55.8776C47.764 55.7075 47.7829 55.7035 47.8538 55.824C47.9026 55.9067 48.0333 55.9359 48.2255 55.9036C48.3893 55.8768 48.6507 55.8784 48.8059 55.9083C49.1728 55.9792 49.6642 55.9233 49.728 55.802C49.7564 55.75 49.8603 55.6925 49.9603 55.6744C50.0611 55.6571 50.2304 55.5287 50.3375 55.3901C50.4856 55.1988 50.5848 55.1405 50.7526 55.146C50.8738 55.1491 50.9731 55.1263 50.9652 55.0932C50.9156 54.7593 51.0896 54.7184 51.4141 54.9909C51.7314 55.2562 52.0504 55.2507 52.0866 54.9783C52.1008 54.8704 52.2102 54.7121 52.3323 54.6239C52.4573 54.5338 52.5692 54.4267 52.6646 54.3057C52.8111 54.0947 53.4379 53.6773 53.5387 53.7246C53.582 53.745 53.6506 53.6931 53.6923 53.6072C53.7388 53.5127 53.8183 53.4631 53.901 53.4812C53.9971 53.5025 54.0286 53.4733 54.0112 53.3733C53.9829 53.1993 54.3798 52.915 54.7239 52.863C55.024 52.8174 55.4193 52.9969 55.3657 53.1544C55.3114 53.3103 56.0824 53.3828 56.936 53.3001C57.5652 53.2395 57.6385 53.2505 57.7172 53.4182C57.7944 53.582 57.8243 53.5867 57.9676 53.4678C58.1133 53.3465 58.1637 53.3592 58.4165 53.5954C58.6559 53.8183 58.726 53.8443 58.8583 53.7458C58.9449 53.682 58.9937 53.593 58.9662 53.5505C58.8953 53.4434 59.2268 53.0347 59.4725 52.926C59.5836 52.8772 59.6529 52.8174 59.6261 52.7937C59.5993 52.7701 59.6174 52.6929 59.6678 52.6205C59.7364 52.5205 59.734 52.4417 59.6552 52.3015C59.5741 52.1519 59.5741 52.085 59.6552 51.9676C59.7442 51.8393 59.7726 51.8393 59.8891 51.9613C60.06 52.1409 60.2774 52.1307 60.6073 51.9275C60.8522 51.7779 60.8814 51.7763 60.9901 51.9196C61.0924 52.0558 61.1633 52.059 61.5287 51.9511C62.0382 51.7999 62.15 51.6975 62.15 51.3817C62.15 51.1786 62.1839 51.1337 62.3548 51.1038C62.4666 51.0833 62.5761 51.1171 62.6005 51.1786C62.6714 51.3597 62.8856 51.3597 63.0454 51.1801C63.1612 51.0494 63.2171 51.0329 63.3085 51.0959C63.399 51.1589 63.4392 51.1447 63.4927 51.0345C63.5841 50.8462 63.8707 50.8793 63.9944 51.0912C64.0471 51.1817 64.2117 51.2951 64.3606 51.3416C64.622 51.4251 64.6393 51.4188 64.9693 51.1282C65.3749 50.7699 65.4552 50.7486 65.5922 50.9549C65.6505 51.0415 65.7473 51.0809 65.8103 51.0447C65.8451 51.0277 65.884 51.0209 65.9224 51.0251C65.9609 51.0292 65.9974 51.0442 66.0277 51.0683C66.1576 51.1809 66.4726 51.2132 66.6199 51.1282C66.6813 51.0919 66.7317 50.9533 66.7317 50.8187C66.7317 50.5297 66.8286 50.4887 66.9869 50.7116C67.0782 50.8384 67.1341 50.8494 67.2499 50.7604C67.4263 50.6265 67.9334 50.673 67.9949 50.8297C68.0657 51.0108 68.2461 50.9014 68.2981 50.6454C68.3453 50.406 68.3618 50.395 68.7312 50.3667C69.0997 50.3383 69.1218 50.3249 69.2202 50.058C69.2785 49.9005 69.3446 49.8225 69.3935 49.8217C69.4384 49.8241 69.4675 49.9044 69.4391 50.0658C69.4092 50.2344 69.4439 50.2879 69.6116 50.3257C69.8502 50.3777 70.3928 50.4068 70.8645 50.3911C71.2614 50.3785 71.3331 50.4123 71.2756 50.5801C71.2441 50.6706 71.3079 50.7297 71.4709 50.7651C71.6032 50.7935 71.7119 50.847 71.7119 50.8833C71.7119 50.9195 71.9276 50.9116 72.1907 50.8651C72.2348 50.8573 72.2482 50.8612 72.286 50.8557V40.052C72.1481 40.3749 72.0371 40.6875 72.0371 40.7733C72.0371 40.8883 71.9859 40.9592 71.8875 40.9765C71.8048 40.9915 71.6449 41.0946 71.5323 41.2072C71.3039 41.4372 71.285 41.4459 71.2 41.3726C71.1669 41.3435 70.9787 41.3443 70.7818 41.3734C70.3889 41.4325 70.1321 41.2978 70.0928 41.0135C70.0747 40.882 69.9825 40.8308 69.7329 40.8119C69.4053 40.7883 69.2635 40.73 69.2635 40.6166C69.2627 40.4749 69.0005 40.2607 68.7824 40.2213C68.4611 40.1646 67.3751 40.5859 67.3751 40.7678C67.3751 40.8025 67.2097 40.8859 67.0073 40.9505C66.805 41.0151 66.5388 41.1482 66.4167 41.2458C66.223 41.4002 66.1631 41.4144 65.9631 41.349C65.7489 41.2797 65.7324 41.2372 65.7245 40.7694C65.719 40.4489 65.6568 40.1504 65.5536 39.9496C65.4363 39.7197 65.3969 39.5007 65.4134 39.1527C65.4394 38.6116 65.4843 38.4849 65.6371 38.5187C65.6946 38.5321 65.7875 38.4746 65.8442 38.3927C65.9009 38.3108 66.0033 38.2336 66.0702 38.2218C66.1372 38.21 66.3301 38.1321 66.501 38.0486C66.7451 37.9281 66.8396 37.8202 66.9459 37.5517C67.0199 37.3627 67.1097 37.2209 67.1444 37.2375C67.179 37.254 67.3058 37.1351 67.4255 36.9729C67.6397 36.6831 67.9594 36.5397 68.0579 36.6886C68.139 36.8122 68.2114 36.7594 68.3563 36.4673C68.4311 36.3145 68.5516 36.1798 68.6225 36.1672C68.7013 36.1531 68.7265 36.109 68.6934 36.0578C68.6524 35.9964 68.7036 35.9759 68.8698 35.9901C69.0325 36.0011 69.1959 35.9977 69.358 35.9798C69.699 35.9373 69.7392 35.9924 69.5974 36.3058C69.4777 36.5704 69.4777 36.572 69.836 36.735C70.0329 36.8248 70.2251 36.8925 70.2613 36.8854C70.3424 36.8713 70.4298 36.4366 70.4298 36.0507C70.4298 35.8971 70.4905 35.6971 70.5645 35.6058C70.5955 35.5659 70.6212 35.5383 70.6417 35.5231C70.6574 35.5115 70.6713 35.5078 70.6834 35.512C70.7212 35.5246 70.7511 35.6144 70.8078 35.8089C70.8708 36.0247 70.9637 36.1696 71.0307 36.1578C71.1331 36.1397 71.3126 36.5736 71.3126 36.8406C71.3126 36.8957 71.4213 36.9886 71.5536 37.0469C71.6867 37.1052 71.7953 37.1784 71.7953 37.2099C71.7953 37.2414 71.8859 37.3406 71.9954 37.4304C72.1056 37.5194 72.1962 37.6273 72.197 37.6714C72.197 37.6903 72.2576 37.747 72.286 37.7871V34.4088C72.1821 34.4791 72.0636 34.5249 71.9395 34.5426C71.5221 34.5836 71.4985 34.7553 71.878 35.0073C72.0521 35.123 72.1757 35.2514 72.1537 35.2939C72.0781 35.4349 71.5993 35.3608 71.3323 35.1655C71.0189 34.9372 70.9464 34.9387 70.8322 35.1829C70.7314 35.3979 70.4133 35.4821 70.2731 35.3286C70.2075 35.2593 70.0972 35.254 69.9424 35.3128C69.6825 35.4144 69.662 35.3829 69.8069 35.1136C69.8809 34.9718 69.8809 34.9135 69.8069 34.849C69.703 34.7592 69.1706 34.6403 68.9974 34.6694C68.8761 34.6891 68.7493 34.5804 68.5942 34.3245C68.5044 34.1749 68.5044 34.1316 68.5942 34.0552C68.6414 34.0457 68.7178 34.0174 68.8005 33.9953H68.8021C68.879 33.9704 68.96 33.9605 69.0407 33.9662L69.0485 33.9646V33.9662C69.1045 33.9685 69.1856 34.0583 69.2281 34.1694L69.3068 34.371L69.5313 34.1646L69.7541 33.9552L70.3944 34.0552C70.7645 34.1127 71.1142 34.2284 71.2228 34.3276C71.374 34.4655 71.4591 34.4796 71.6536 34.4001C71.7875 34.345 71.9426 34.2859 71.9969 34.2678C72.0521 34.2497 72.1584 34.1591 72.2332 34.0662C72.2545 34.0402 72.2671 34.0426 72.286 34.0229V19.725C72.1733 19.755 72.1182 19.7439 72.1182 19.6557C72.1182 19.5982 72.1056 19.5691 72.0615 19.5652ZM50.5289 22.6278C50.4541 22.6411 50.4525 22.6892 50.521 22.8294C50.5998 22.9916 50.8179 22.9971 50.8179 22.8372C50.8179 22.7427 50.6336 22.6089 50.5289 22.6278ZM72.0883 23.6003C72.1048 23.6043 72.1174 23.6192 72.1174 23.646C72.1174 23.6917 72.0615 23.761 71.9914 23.8019C71.9127 23.8468 71.8765 23.8358 71.8961 23.7704C71.9261 23.6712 72.0355 23.5885 72.0883 23.6003ZM71.7284 23.8153C71.856 23.7925 71.7646 23.9933 71.5701 24.1634C71.4677 24.2524 71.3945 24.2807 71.3945 24.2295C71.3945 24.1161 71.6221 23.8342 71.7284 23.8153ZM49.202 24.0027C49.1906 23.9975 49.178 23.9957 49.1656 23.9977C49.1533 23.9997 49.1418 24.0053 49.1327 24.0138C49.0823 24.0555 49.0894 24.1335 49.1524 24.228C49.2595 24.3862 49.3366 24.2689 49.2587 24.0689C49.2487 24.0407 49.2285 24.0166 49.202 24.0027ZM48.3664 24.1949C48.5105 24.1689 48.5255 24.3469 48.3908 24.5115C48.2538 24.68 48.1396 24.6808 48.1971 24.513C48.2239 24.4343 48.2467 24.3358 48.2467 24.2925C48.2467 24.2508 48.3003 24.2059 48.3664 24.1949ZM55.7926 26.6141C55.7405 26.6239 55.6917 26.6466 55.6508 26.6802C55.4453 26.833 55.4248 27.1212 55.6193 27.1323C55.7894 27.1417 55.7634 27.1653 55.8658 26.9385C55.9603 26.733 55.9138 26.5999 55.7941 26.6141H55.7926ZM54.4199 26.6574C54.3507 26.6408 54.2784 26.6419 54.2097 26.6605C53.964 26.7157 53.5891 27.0126 53.5175 27.2094C53.4497 27.3953 53.612 27.8008 53.8742 28.1017C54.0128 28.2607 54.09 28.3978 54.0435 28.4056C53.9971 28.4135 53.9175 28.5088 53.8663 28.6167C53.7876 28.7852 53.8073 28.834 54.0049 28.9687C54.1309 29.0553 54.2806 29.0979 54.3404 29.0656C54.3975 29.034 54.4584 29.0097 54.5215 28.9931C54.6318 28.9742 54.6105 28.6175 54.49 28.449C54.431 28.3678 54.3766 28.182 54.368 28.0355C54.3585 27.8717 54.2593 27.6772 54.1112 27.5339C53.9537 27.3803 53.9033 27.2811 53.9695 27.2464C54.0508 27.1938 54.1236 27.129 54.1853 27.0543C54.2244 27.0125 54.2714 26.9789 54.3235 26.9554C54.3757 26.9318 54.432 26.9189 54.4892 26.9173C54.6688 26.9212 54.6743 26.911 54.5664 26.7629C54.5313 26.7118 54.4795 26.6745 54.4199 26.6574ZM51.655 27.1771C51.6054 27.1805 51.5569 27.1937 51.5126 27.2162C51.4682 27.2387 51.4288 27.2698 51.3967 27.3079C51.2747 27.4575 51.2818 27.4654 51.4794 27.4307C51.5975 27.4095 51.7157 27.3504 51.7424 27.2984C51.7873 27.2149 51.7346 27.1748 51.655 27.1771ZM50.7368 27.4567C50.6502 27.4591 50.5439 27.4961 50.4966 27.563C50.4494 27.63 50.3257 27.878 50.221 28.1119C50.0556 28.4852 50.0462 28.5521 50.1493 28.6411C50.2974 28.7703 50.5722 28.7183 50.7738 28.523C50.9754 28.3269 51.3353 28.2647 51.4889 28.3986C51.6251 28.5167 52.1622 28.445 52.3457 28.2844C52.4457 28.1962 52.4181 28.1442 52.1842 27.9772C51.7354 27.6552 51.4834 27.5914 51.2597 27.7386C51.1077 27.8379 51.0424 27.8394 50.9384 27.7489C50.8667 27.6867 50.8282 27.5977 50.8518 27.552C50.888 27.4851 50.8226 27.4543 50.7368 27.4575M54.5389 27.9268C54.5242 27.9373 54.5163 27.9552 54.5152 27.9804C54.5152 28.03 54.5515 28.0623 54.5956 28.0544C54.6397 28.0465 54.6759 28.0245 54.6759 28.004C54.6759 27.9835 54.6397 27.9489 54.5956 27.9284C54.5725 27.9179 54.5536 27.9174 54.5389 27.9268ZM47.3836 28.167C47.3702 28.171 47.3529 28.2103 47.3222 28.2915C47.2786 28.4054 47.2949 28.4862 47.371 28.534C47.434 28.5742 47.549 28.701 47.6278 28.8159C47.7065 28.9309 47.8057 28.9971 47.8483 28.9616C47.8908 28.927 47.9467 28.9514 47.9727 29.0167C47.9987 29.0837 48.0861 29.1483 48.1664 29.1601C48.3137 29.1837 48.446 29.3932 48.3712 29.4845C48.3491 29.5121 48.2711 29.4924 48.1979 29.442C48.0774 29.3593 48.0695 29.3656 48.1192 29.5215C48.1585 29.6444 48.1255 29.7578 48.0089 29.8995C47.9183 30.0114 47.8451 30.1381 47.8451 30.1815C47.8451 30.3405 47.6837 30.3862 47.4403 30.2988C47.149 30.1925 47.1647 30.0145 47.4695 29.9539C47.8341 29.883 47.9136 29.6971 47.6648 29.5003C47.5466 29.4058 47.4159 29.3357 47.3742 29.3428C47.2876 29.3585 46.8387 28.9199 46.7788 28.7624C46.7473 28.6781 46.6702 28.7073 46.4245 28.8939C46.1961 29.0671 46.0717 29.1168 45.9716 29.0758C45.8 29.0057 45.6748 29.1026 45.6748 29.305C45.6748 29.3892 45.5488 29.5806 45.3936 29.7326C45.2156 29.9058 45.1117 30.0807 45.1117 30.2035C45.1117 30.4894 44.7754 30.8855 44.4581 30.9737C44.3092 31.0154 44.1872 31.0871 44.1872 31.1335C44.1872 31.2847 44.7172 31.1564 44.9904 30.9382C45.2519 30.7296 46.7056 30.272 46.9403 30.324C47.0623 30.3523 47.0749 30.8815 46.956 30.98C46.8269 31.0871 47.1245 31.2343 47.3821 31.1926C47.5195 31.1766 47.6578 31.2144 47.7679 31.2981C48.0357 31.5312 48.4877 31.5982 48.4877 31.4044C48.4877 31.1186 48.972 30.7941 49.1736 30.9461C49.2161 30.9776 49.4571 31.0343 49.7075 31.069C50.0525 31.1178 50.2312 31.0989 50.4431 30.9997C50.599 30.9264 50.7533 30.8973 50.7919 30.9304C50.9108 31.0343 51.229 30.8327 51.307 30.6043C51.3479 30.4846 51.381 30.2342 51.381 30.0492C51.381 29.7373 51.3668 29.7192 51.1999 29.8082C51.0998 29.8602 50.9463 29.9098 50.8581 29.9169C50.7699 29.9239 50.6021 29.9484 50.484 29.9696C50.169 30.0247 49.854 29.935 49.854 29.7885C49.854 29.7176 49.8146 29.6672 49.7642 29.6759C49.717 29.6845 49.6934 29.6137 49.717 29.516C49.7398 29.4192 49.7288 29.3443 49.6926 29.3506C49.6564 29.3569 49.6477 29.2829 49.6705 29.1868C49.7036 29.0506 49.6729 29.0175 49.5367 29.0419C49.4398 29.0593 49.3847 29.1057 49.4122 29.1483C49.4398 29.19 49.4059 29.2569 49.3366 29.2979C49.1878 29.3837 49.1689 29.5845 49.3075 29.6082C49.4382 29.6302 49.2138 30.1547 49.0634 30.1799C48.9326 30.2019 48.7263 29.961 48.7263 29.7814C48.7255 29.7097 48.6547 29.5672 48.568 29.4664C48.4814 29.3664 48.4097 29.201 48.4097 29.0986C48.4082 28.9753 48.2866 28.8482 48.0451 28.7175C47.8459 28.6096 47.6829 28.4679 47.6829 28.4025C47.6829 28.334 47.6364 28.3104 47.5711 28.3482C47.5041 28.3875 47.4427 28.3537 47.4214 28.267C47.4057 28.1985 47.3962 28.1662 47.3836 28.167ZM46.6607 28.9821C46.8379 28.9136 46.8497 29.9035 46.6733 30.0058C46.6064 30.0452 46.5339 30.0295 46.5119 29.9728C46.4268 29.7562 46.5363 29.0301 46.6607 28.9821ZM66.8711 29.342C66.9002 29.3341 66.9168 29.3609 66.9388 29.4176C66.9947 29.5609 66.8333 30.1673 66.7341 30.1846C66.6979 30.1909 66.6475 30.1413 66.6207 30.0728C66.5333 29.8491 66.5695 29.6538 66.7309 29.4711C66.8018 29.3908 66.8428 29.3491 66.8711 29.342ZM45.644 29.8617C45.6716 29.8586 45.6944 29.8625 45.7055 29.8798C45.7645 29.9704 45.644 30.1358 45.533 30.1161C45.4779 30.1051 45.433 30.0657 45.433 30.0279C45.433 29.957 45.5606 29.872 45.644 29.8617ZM66.7372 30.7138C66.7614 30.7117 66.7931 30.7138 66.8325 30.7201C67.0499 30.7516 67.0231 30.728 67.0861 30.9327C67.1019 30.9839 67.1036 31.0384 67.0911 31.0905C67.0787 31.1425 67.0524 31.1903 67.0152 31.2288C66.8341 31.4194 66.8656 31.4903 67.1341 31.5045C67.3184 31.5139 67.3743 31.5627 67.3743 31.7155C67.3743 31.9045 67.3641 31.9108 67.157 31.8352C67.0381 31.7919 66.9215 31.7817 66.8971 31.8139C66.8735 31.8454 66.8987 31.8809 66.9546 31.8927C67.0039 31.9 67.0511 31.9176 67.0931 31.9445C67.1351 31.9713 67.171 32.0066 67.1984 32.0482C67.2259 32.0899 67.2442 32.1368 67.2523 32.186C67.2603 32.2352 67.2579 32.2855 67.2452 32.3337C67.19 32.5747 67.3019 32.5912 67.4814 32.3707C67.672 32.1376 67.8319 32.4022 67.7893 32.8747C67.7752 33.0354 67.6413 33.1259 67.435 33.1149C67.3578 33.111 67.2956 33.0472 67.2956 32.9763C67.2956 32.8802 67.2428 32.8708 67.094 32.9369C66.9443 33.0023 66.8924 32.9905 66.8924 32.8936C66.8924 32.8212 66.9475 32.733 67.0129 32.6952C67.1184 32.6337 67.1184 32.6062 67.0129 32.4668C66.9461 32.3769 66.9045 32.2709 66.8924 32.1597C66.8924 32.077 66.8609 32.0155 66.8207 32.0226C66.7105 32.0423 66.4718 31.2918 66.5711 31.2399C66.616 31.2162 66.653 31.0847 66.653 30.9461C66.653 30.78 66.664 30.7225 66.7372 30.7138ZM53.8301 30.8154C53.804 30.8141 53.7781 30.821 53.7561 30.8351C53.7293 30.8532 53.7112 30.8847 53.7112 30.9296C53.7112 30.9926 53.7829 31.1146 53.8711 31.1981C53.9593 31.2816 54.0325 31.3871 54.0325 31.4344C54.0325 31.4816 54.0876 31.4871 54.1546 31.4493C54.242 31.3981 54.2743 31.4391 54.2743 31.5997C54.2743 31.9053 54.5782 31.8407 54.868 31.4722L55.0893 31.1887L54.8688 31.2721C54.6011 31.3745 54.1782 31.2249 54.0711 30.9886C54.0501 30.9408 54.0167 30.8995 53.9743 30.869C53.9319 30.8386 53.8821 30.82 53.8301 30.8154ZM51.2046 31.7092C51.1979 31.7092 51.1913 31.7106 51.1852 31.7133C51.1791 31.716 51.1736 31.72 51.1691 31.725C51.1164 31.7887 51.3054 32.1896 51.681 32.8149C51.7361 32.9054 51.7802 33.0637 51.781 33.1653C51.781 33.2677 51.8188 33.3661 51.8637 33.3874C51.9086 33.4086 51.9968 33.5433 52.0582 33.6866C52.1197 33.8307 52.2417 33.9591 52.3299 33.9733C52.4189 33.9867 52.511 34.0497 52.5362 34.1127C52.6158 34.3269 52.6804 34.2127 52.6237 33.9473C52.5528 33.6126 52.2142 33.0582 52.0606 33.0243C51.9968 33.0094 51.944 32.9031 51.944 32.7857C51.9383 32.655 51.8835 32.5313 51.7905 32.4392C51.7035 32.3621 51.6346 32.2666 51.5889 32.1597C51.5196 31.9549 51.3022 31.7108 51.2046 31.7092ZM66.5254 32.1612C66.649 32.1392 66.549 32.4534 66.3663 32.6644C66.1222 32.9456 65.9663 33.0015 66.0852 32.766C66.1994 32.54 66.4679 32.1715 66.5254 32.1612ZM42.5381 32.9857C42.5822 32.9779 42.62 33.0078 42.62 33.0519C42.62 33.0952 42.583 33.1598 42.5389 33.196C42.494 33.233 42.4586 33.2039 42.4586 33.1314C42.4586 33.0598 42.494 32.9936 42.5381 32.9857ZM66.0151 33.007L66.286 33.1873L66.56 33.3669L66.3844 33.5559C66.2167 33.7378 66.2159 33.7528 66.3458 33.967C66.4309 34.1064 66.4498 34.1953 66.3931 34.2056C66.3608 34.2111 66.3474 34.2276 66.3474 34.2434C66.3451 34.2465 66.1923 34.4229 66.1797 34.4347C66.1489 34.5273 66.1267 34.6224 66.1135 34.719C66.0994 34.745 66.0852 34.7631 66.0718 34.7899C65.8749 35.197 65.8765 35.1955 65.2843 35.2175C65.174 35.2215 65.0205 35.2293 64.9433 35.2356C64.9249 35.2373 64.9063 35.2351 64.8888 35.229C64.8713 35.223 64.8552 35.2134 64.8417 35.2008C64.8282 35.1881 64.8175 35.1728 64.8103 35.1557C64.8031 35.1386 64.7996 35.1203 64.8 35.1018C64.7378 34.8915 64.6543 34.708 64.611 34.43C64.6173 34.4174 64.6196 34.4095 64.6275 34.3962C64.6811 34.2631 64.7645 34.1812 64.8291 34.1961C64.8898 34.2095 64.985 34.1544 65.0417 34.0733C65.0984 33.9922 65.1929 33.9142 65.252 33.904C65.3119 33.8929 65.4001 33.8016 65.4473 33.7008C65.4946 33.6 65.5812 33.5086 65.6418 33.4976C65.7009 33.4874 65.8096 33.3716 65.8828 33.2425L66.0151 33.007ZM42.1948 33.081C42.2263 33.0837 42.2607 33.0939 42.298 33.1117C42.3932 33.1582 42.3972 33.1944 42.3176 33.2913C42.2452 33.3811 42.2176 33.3882 42.2176 33.3165C42.2176 33.2598 42.1625 33.2511 42.0869 33.2944C41.9987 33.3459 41.9672 33.3312 41.9924 33.2503C42.0166 33.1711 42.0554 33.1191 42.109 33.0944C42.136 33.0818 42.1652 33.0772 42.1948 33.081ZM66.8097 33.1204C66.8569 33.1125 66.8939 33.144 66.8939 33.1905C66.8939 33.237 66.8782 33.2771 66.8585 33.2811C66.8396 33.2842 66.8018 33.2535 66.7742 33.2118C66.7475 33.17 66.7632 33.1283 66.8097 33.1204ZM67.9925 33.6173C68.0476 33.6016 68.1106 33.6488 68.165 33.763L68.2571 33.9599C68.202 34.0355 68.1429 34.0993 68.0996 34.1725C68.0917 34.1654 67.8917 34.1961 67.8319 33.9583C67.8532 33.9236 67.8677 33.8851 67.8744 33.8449C67.8925 33.7102 67.9374 33.6331 67.9925 33.6173ZM72.0395 33.7032C72.0828 33.6953 72.119 33.7284 72.119 33.774C72.1189 33.7971 72.111 33.8195 72.0965 33.8375C72.0821 33.8555 72.062 33.8681 72.0395 33.8733C71.9946 33.8811 71.9591 33.8496 71.9591 33.804C71.9591 33.7575 71.9954 33.711 72.0395 33.7032ZM71.441 33.7276C71.5095 33.7158 71.5449 33.7473 71.5174 33.7984C71.4906 33.8496 71.4331 33.8985 71.3914 33.9063C71.3496 33.9142 71.3165 33.8803 71.3165 33.8339C71.3165 33.7874 71.3717 33.7394 71.441 33.7276ZM67.5476 33.8C67.5956 33.8118 67.5972 33.8764 67.5279 33.9772C67.5074 34.0056 67.5019 34.0268 67.494 34.0434L67.2696 34.1229C67.0806 34.1969 66.8506 34.2347 66.7341 34.3922C66.7341 34.4347 66.8057 34.4355 66.8939 34.3954C66.9199 34.3836 66.9215 34.3765 66.9436 34.3639L67.0223 34.3402L67.2727 34.3324L67.2586 34.3536C67.2326 34.3757 67.1995 34.3938 67.1774 34.4182C67.0593 34.5466 67.0042 34.6702 67.042 34.7167C67.0774 34.7608 67.1018 34.8718 67.1018 34.9639C67.0955 35.1805 66.8396 35.2821 66.79 35.0892C66.7664 34.9962 66.7514 35.0301 66.7435 35.1829C66.7364 35.3624 66.7002 35.4223 66.5939 35.4191C66.5167 35.4175 66.4522 35.3404 66.4522 35.249C66.453 35.161 66.4327 35.074 66.3931 34.9954C66.36 34.9474 66.3679 34.7994 66.4128 34.6686C66.4474 34.567 66.4506 34.5348 66.46 34.4891C66.4821 34.4245 66.5782 34.1505 66.5782 34.1347L66.5679 34.1402C66.6147 34.0815 66.6757 34.0357 66.7452 34.0072C66.8147 33.9787 66.8903 33.9683 66.9648 33.9772C67.0987 33.9835 67.2767 33.937 67.3617 33.874C67.3991 33.8455 67.4405 33.8227 67.4846 33.8063C67.5046 33.7985 67.5264 33.7963 67.5476 33.8ZM62.3264 34.0465H62.3296C62.4674 34.0465 62.6698 34.1119 62.873 34.2355C63.1643 34.4135 63.3793 34.5245 63.566 34.5978C63.7187 34.8041 63.7392 34.9616 63.9723 34.9411C64.096 34.8694 64.3212 35.008 64.3212 35.1585C64.3212 35.2065 64.3747 35.2152 64.4409 35.1766C64.5078 35.138 64.5614 35.1506 64.5614 35.2081C64.5614 35.2742 64.4929 35.3049 64.3613 35.2931C64.181 35.2782 64.1597 35.3034 64.1597 35.5231C64.1597 35.7987 64.3283 35.8507 64.9591 35.7688C65.1559 35.7436 65.3292 35.7633 65.3473 35.8137C65.3638 35.8633 65.4465 35.8916 65.5316 35.8767C65.6292 35.8593 65.6867 35.9082 65.6867 36.0105C65.6867 36.1499 65.6434 36.172 65.3457 36.1854C65.1575 36.194 64.9409 36.1798 64.8669 36.1539C64.7537 36.1245 64.6353 36.1207 64.5204 36.1428C64.3909 36.1622 64.2587 36.152 64.1338 36.1129C63.8802 36.0168 63.1588 35.4073 63.0336 35.1837L62.9273 34.9939L62.8218 34.8151V34.8088C62.8202 34.8049 62.8076 34.8009 62.8076 34.797V34.7923C62.769 34.7348 62.6635 34.6671 62.5446 34.6363C62.2981 34.5733 62.1524 34.3993 62.1524 34.1678C62.1524 34.1205 62.176 34.0875 62.2154 34.0678C62.2498 34.0516 62.2877 34.0441 62.3257 34.0457M68.4871 34.4914C68.549 34.5093 68.5805 34.5466 68.5816 34.6033C68.5816 34.6938 67.7326 34.9025 67.6523 34.8316C67.5578 34.7497 67.6507 34.6694 67.9657 34.5639C68.0602 34.5324 68.1453 34.5098 68.2209 34.4962C68.3083 34.4756 68.399 34.474 68.4871 34.4914ZM67.8011 35.5065H67.8027C67.8815 35.4987 67.9366 35.538 67.9366 35.6341C67.935 35.694 67.7964 35.8341 67.6287 35.9452C67.2562 36.1909 67.2152 36.2011 67.2152 36.0397C67.2152 35.9704 67.246 35.9082 67.2814 35.9019C67.3168 35.8956 67.4279 35.7963 67.5271 35.6814C67.6192 35.5758 67.7208 35.516 67.8011 35.5065ZM67.0625 35.7522C67.3342 35.7507 67.1585 35.8814 66.5782 36.0097C66.1277 36.109 66.0025 36.1121 66.0293 36.0231C66.0529 35.9436 66.2419 35.8759 66.6412 35.8026C66.8317 35.7696 66.9722 35.7528 67.0625 35.7522ZM50.9479 37.1304C50.8274 37.1524 50.7195 37.3768 50.7974 37.4446C50.8541 37.4942 51.0605 37.291 51.0605 37.1863C51.0605 37.1453 51.0093 37.1193 50.9479 37.1304ZM53.7553 38.8266C53.8222 38.8219 53.9018 38.8621 53.9506 38.9495C54.053 39.133 54.0585 39.4566 53.9616 39.7291C53.9207 39.8433 53.8041 40.2685 53.7025 40.6741C53.5537 41.2679 53.4797 41.4301 53.3277 41.5183C53.0489 41.679 52.9237 41.6837 52.8434 41.5341C52.6859 41.2403 52.6662 40.9489 52.7859 40.6843C52.8512 40.5371 52.8851 40.3615 52.8583 40.2937C52.7623 40.0496 52.9056 39.7346 53.1922 39.559C53.3458 39.4637 53.4718 39.3275 53.4718 39.2558C53.4718 39.1842 53.5064 39.1188 53.5505 39.1109C53.5946 39.103 53.6324 39.0393 53.6324 38.9692C53.6324 38.8786 53.6876 38.8314 53.7553 38.8266ZM52.8048 38.8684C52.8205 38.8799 52.8284 38.9038 52.8284 38.94C52.8284 39.0881 52.7796 39.1188 52.7103 39.0141C52.6859 38.9755 52.7016 38.9133 52.7465 38.8755C52.7696 38.8581 52.789 38.8563 52.8048 38.8684ZM53.0017 38.9715H53.0032C53.0338 38.9755 53.0626 38.9884 53.0859 39.0085C53.2072 39.1141 53.1395 39.1975 52.9891 39.1267C52.9237 39.0975 52.8993 39.04 52.9324 38.9999C52.9481 38.9786 52.9741 38.9707 53.0017 38.9715ZM54.9176 40.2993C54.9278 40.2971 54.9383 40.2972 54.9483 40.2998C54.9584 40.3023 54.9677 40.3071 54.9756 40.3138C54.9835 40.3205 54.9898 40.3289 54.994 40.3384C54.9981 40.3479 55 40.3582 54.9995 40.3686C54.9991 40.3918 54.9908 40.4143 54.9759 40.4322C54.961 40.4501 54.9405 40.4623 54.9176 40.467C54.8735 40.4749 54.8381 40.4434 54.8381 40.3977C54.8384 40.3747 54.8464 40.3526 54.8608 40.3347C54.8753 40.3169 54.8953 40.3044 54.9176 40.2993ZM69.6313 40.5379C69.6081 40.5428 69.5872 40.5553 69.572 40.5734C69.5567 40.5915 69.5479 40.6142 69.547 40.6379C69.547 40.6836 69.5628 40.7198 69.5817 40.7166C69.6014 40.7127 69.6407 40.6654 69.6683 40.6143C69.6951 40.5631 69.6778 40.5292 69.6313 40.5379ZM71.5583 41.6727C71.7095 41.6608 71.7166 41.712 71.7166 41.9018C71.7166 42.1617 71.5134 42.4767 71.3244 42.5106C71.2709 42.5208 71.1732 42.4066 71.1094 42.257C70.9259 41.8294 70.9504 41.7719 71.3536 41.7018C71.4214 41.6891 71.4897 41.6794 71.5583 41.6727ZM41.9688 61.0822V62.9202C42.9038 62.4592 43.8768 62.0798 44.877 61.7862C48.353 60.7624 52.715 60.2191 57.0573 59.9025C62.1255 59.5409 67.2085 59.431 72.2875 59.5733V57.5258C62.6131 57.3077 50.0265 57.6558 41.9688 61.0822ZM11.0933 8.36613C9.06702 8.35668 8.60082 8.3803 7.71252 8.39841V59.5733C12.7916 59.431 17.8746 59.5409 22.9428 59.9025C27.2851 60.2191 31.647 60.7624 35.123 61.7854C36.1233 62.0793 37.0963 62.4589 38.0313 62.9202V12.7714C38.0297 12.6092 37.9998 12.421 37.3564 11.9595C36.7122 11.4972 35.5459 10.9751 34.0631 10.542C31.0965 9.67889 26.8984 9.11661 22.6916 8.79531C18.4847 8.47401 14.263 8.3803 11.0933 8.36613ZM29.9547 10.4735C30.4075 10.4632 30.9304 10.4743 31.5328 10.5121C32.9826 10.6018 34.0024 11.1082 34.8222 11.3389C36.7288 11.8744 37.2477 12.2942 37.3792 12.3887C37.6076 12.5517 37.6541 12.7407 37.4816 12.799C37.4233 12.8194 37.4635 12.8439 37.5698 12.8541C37.732 12.8698 37.762 12.9226 37.762 13.1746C37.762 13.3833 37.7242 13.4707 37.6344 13.4652C37.5454 13.4597 37.5037 13.5479 37.5037 13.7511C37.5037 13.9117 37.4564 14.0598 37.3973 14.0802C37.3123 14.1094 37.3123 14.118 37.3973 14.1291C37.5548 14.1487 37.5352 14.715 37.3761 14.7661C37.195 14.8244 37.217 14.9528 37.4194 15.0181C37.5974 15.0764 37.6525 15.304 37.5068 15.3843C37.4603 15.4103 37.3485 15.3859 37.2564 15.3308C37.1383 15.2599 37.0697 15.2568 37.0304 15.3182C36.9989 15.367 37.054 15.4324 37.1532 15.4647C37.269 15.5025 37.3328 15.5922 37.3328 15.7182C37.3328 15.9742 36.9516 16.0624 36.7374 15.8553C36.6035 15.7253 36.5752 15.7269 36.4334 15.8749C36.2799 16.0356 36.2815 16.0387 36.5272 16.0057C36.8713 15.96 37.1091 16.1569 37.013 16.4104L36.9406 16.601L36.6996 16.3648C36.3185 15.9868 36.3287 16.1695 36.7114 16.5766C36.9012 16.7782 37.0485 16.942 37.0375 16.9412C37.0272 16.9404 37.0453 17.12 37.0776 17.3397L37.1375 17.7374L36.8067 17.6728C36.6201 17.6366 36.4972 17.6429 36.5232 17.6886C36.55 17.7327 36.6673 17.7752 36.7831 17.7831C36.8973 17.7894 36.9894 17.8437 36.9871 17.902C36.9792 18.1067 36.1775 18.658 35.7058 18.7824C35.0293 18.9604 34.9923 18.9816 34.8309 19.3084C34.6482 19.677 34.319 19.9203 33.9402 19.9676C33.7748 19.9888 33.6488 20.0574 33.6488 20.1251C33.6488 20.1904 33.6197 20.2424 33.5851 20.2401C33.5504 20.2377 33.511 20.3763 33.4984 20.5472C33.4858 20.7196 33.4386 20.9039 33.3921 20.9567C33.3464 21.0094 33.3338 21.0795 33.3646 21.1126C33.3961 21.1457 33.3567 21.1677 33.2803 21.163C33.1913 21.1575 33.1582 21.2024 33.1897 21.2843C33.2165 21.3567 33.1929 21.6056 33.1354 21.8379C33.0417 22.2222 33.0094 22.2592 32.7889 22.2458C32.6196 22.2356 32.5306 22.1781 32.4912 22.0521C32.4518 21.9285 32.3747 21.8749 32.2416 21.8844C32.1837 21.8856 32.1261 21.8753 32.0723 21.8539C32.0184 21.8325 31.9694 21.8006 31.9282 21.7599C31.7565 21.5646 31.347 20.7047 31.2793 20.3952C31.2412 20.2337 31.1802 20.0786 31.0981 19.9345C30.8012 19.4581 30.9091 18.3382 31.2572 18.2682C31.3462 18.2508 31.4139 18.1264 31.436 17.9374C31.4659 17.6823 31.4431 17.6303 31.2863 17.5901C31.1446 17.5539 31.1107 17.5783 31.1422 17.6996C31.2005 17.9272 30.791 17.9894 30.5965 17.7823C30.4587 17.6366 30.4595 17.6106 30.6122 17.3381C30.7611 17.0704 30.7965 17.0538 31.0918 17.1121L31.4116 17.1735L31.2037 16.9688C31.0895 16.8554 31.0139 16.7388 31.0359 16.7089C31.0588 16.679 31.0328 16.6908 30.9761 16.7349C30.8335 16.8467 30.5666 16.8184 30.5548 16.6884C30.5343 16.4703 30.5839 16.2364 30.6713 16.1348C30.7343 16.0616 30.7343 15.9718 30.6713 15.8356C30.5548 15.5836 30.3091 14.7646 30.3091 14.6275C30.3091 14.5693 30.2484 14.4535 30.176 14.3692C30.0942 14.2672 30.0366 14.1479 30.0074 14.0204C29.9626 13.7841 30.0051 13.8259 29.5515 13.5691L29.1829 13.3589L28.8908 13.514C28.649 13.6416 28.5521 13.6487 28.3364 13.5605C28.0647 13.4487 27.8631 13.1715 27.9521 13.0329C27.9804 12.988 27.9048 12.9092 27.7843 12.8557C27.5087 12.7344 27.5056 12.5525 27.7725 12.3595L27.9781 12.2115L27.6922 12.0382C27.0614 11.6587 26.7842 10.5451 29.9547 10.4735ZM19.6621 11.1704C19.9802 11.1854 20.1976 11.2129 20.1448 11.2318C20.0928 11.25 20.0692 11.3594 20.0912 11.476C20.1227 11.6445 20.0842 11.7028 19.9022 11.761C19.6093 11.854 19.6258 11.8579 19.4943 11.6665C19.426 11.5718 19.3365 11.4944 19.2329 11.4405C19.1502 11.4051 19.0832 11.3224 19.0832 11.2594C19.0832 11.1744 19.2376 11.1492 19.6621 11.1704ZM21.8891 11.298C22.2443 11.3027 22.3616 11.4082 22.1458 11.5319C21.9694 11.6319 21.5788 11.598 21.4796 11.4728C21.3623 11.324 21.4402 11.2917 21.8891 11.298ZM22.6798 11.3366C22.9664 11.3539 23.0326 11.3846 22.9932 11.4838C22.9612 11.5668 22.9961 11.6114 23.0979 11.6177C23.2979 11.6303 23.3657 11.7083 23.309 11.854C23.246 12.0146 22.9325 11.9768 22.7246 11.7831C22.6211 11.6853 22.5242 11.5806 22.4348 11.4697C22.327 11.3271 22.3482 11.3153 22.679 11.3358M20.8087 11.4358C20.8827 11.3665 21.1394 11.661 21.1591 11.8398C21.1969 12.165 20.9914 12.1209 20.8811 11.7799C20.8244 11.6059 20.7921 11.4508 20.8087 11.4358ZM18.8478 11.4846C18.8832 11.4972 18.9202 11.5429 18.9785 11.6295C19.0612 11.7524 19.0809 11.8406 19.0258 11.8555C18.9761 11.8689 18.9541 11.9729 18.9754 12.0839C18.9966 12.1965 18.9698 12.3115 18.9179 12.3399C18.8659 12.3682 18.8257 12.4572 18.8273 12.5367C18.8297 12.6698 18.8368 12.669 18.9171 12.5367C19.0092 12.3832 19.34 12.3532 19.34 12.4981C19.34 12.5454 19.399 12.5871 19.4723 12.5926C19.5447 12.5966 19.6699 12.7194 19.7502 12.8659C19.8369 13.0234 19.966 13.1352 20.0668 13.1415C20.1976 13.1494 20.2109 13.1313 20.1212 13.0691C20.0558 13.0234 20.0275 12.9486 20.0582 12.9013C20.0728 12.8778 20.0777 12.8496 20.0718 12.8225C20.066 12.7954 20.0498 12.7717 20.0267 12.7564C19.8912 12.6643 19.9219 12.4989 20.1149 12.3044C20.2968 12.1201 20.4992 12.1548 20.4196 12.3564C20.3944 12.4194 20.4141 12.4981 20.4622 12.5304C20.511 12.5635 20.5307 12.6446 20.5055 12.7092C20.474 12.7895 20.5252 12.8289 20.6685 12.8383C20.9165 12.8541 21.0622 13.0974 20.9945 13.3794C20.9473 13.5747 20.952 13.5778 21.0748 13.4266C21.2008 13.273 21.204 13.273 21.3024 13.4628C21.3575 13.5691 21.3812 13.6581 21.356 13.6629C21.2624 13.6723 21.1687 13.6794 21.0748 13.6841C20.4322 13.7219 20.133 13.7841 19.9251 13.918C19.6384 14.1031 19.3817 14.0881 19.2384 13.8794C19.177 13.7896 19.0006 13.6353 18.8478 13.5361C18.6359 13.3998 18.58 13.3156 18.617 13.1856C18.6491 13.0701 18.6393 13.0481 18.5879 13.1195C18.5115 13.2234 18.2257 13.1557 18.2257 13.0329C18.2257 12.9305 18.5296 12.706 18.6564 12.7139C18.7462 12.7194 18.7509 12.695 18.6737 12.6139C18.5974 12.532 18.5296 12.5604 18.3895 12.7305C18.2635 12.8824 18.1611 12.9305 18.0666 12.884C17.9774 12.8426 17.8812 12.8183 17.7831 12.8124C17.55 12.8068 17.5311 12.5753 17.7476 12.3556C17.8935 12.2006 18.0287 12.0359 18.1524 11.8626C18.2705 11.6941 18.4076 11.5917 18.4847 11.6154C18.5564 11.6374 18.6659 11.6043 18.7289 11.5413C18.7777 11.4925 18.8123 11.4728 18.8478 11.4846ZM25.1249 11.5232C25.3533 11.513 25.6077 11.5153 25.8431 11.5264H25.8447C26.3172 11.5484 26.7141 11.6091 26.6866 11.691C26.6669 11.7484 26.5645 11.8036 26.4582 11.8122C26.3317 11.8238 26.2836 11.8716 26.3141 11.9556C26.34 12.0249 26.2944 12.1485 26.2125 12.2288C26.0298 12.4092 25.9872 12.5769 26.1282 12.5564C26.1857 12.5485 26.2463 12.6241 26.2621 12.7257C26.2818 12.8596 26.207 12.9557 25.9959 13.0738C25.6597 13.2604 25.4935 13.2746 25.5573 13.1116C25.5888 13.0305 25.5179 12.9966 25.2974 12.9888C25.1305 12.9825 24.9942 13.0084 24.9942 13.0455C24.9942 13.0833 24.8052 13.0762 24.5713 13.0297C24.2485 12.9675 24.1146 12.9777 24.0161 13.0707C23.8996 13.1801 23.9177 13.21 24.187 13.3549C24.4682 13.5054 24.517 13.5077 24.9178 13.3998C25.2675 13.3053 25.3919 13.3053 25.5927 13.4014C25.8794 13.5376 25.9817 13.74 25.8431 13.8975C25.7896 13.959 25.766 14.0865 25.7896 14.1795C25.8132 14.2724 25.7849 14.3622 25.7266 14.3811C25.588 14.4259 23.972 14.3212 23.7531 14.2535H23.7515C23.4554 14.1613 23.3672 14.0251 23.3657 13.6597C23.3641 13.0809 23.2909 12.91 23.0672 12.9517C22.9192 12.9801 22.8294 12.9265 22.69 12.7234C22.4183 12.3241 22.4522 12.1776 22.8081 12.1997C23.0129 12.2123 23.1412 12.2745 23.2137 12.3934C23.2835 12.5105 23.378 12.5572 23.4972 12.5336C23.5523 12.5242 23.609 12.5297 23.6613 12.5495C23.7136 12.5693 23.7597 12.6027 23.7949 12.6462C23.8972 12.7761 23.9209 12.7667 24.0193 12.5383C24.0799 12.3981 24.1862 12.2863 24.2555 12.291C24.3682 12.2973 24.3682 12.2674 24.2611 12.054C24.1933 11.9201 24.1382 11.7862 24.1374 11.7571C24.1374 11.7272 24.328 11.6524 24.5611 11.5909C24.7464 11.5501 24.9352 11.5274 25.1249 11.5232ZM19.2463 12.0879C19.3368 12.0918 19.425 12.1627 19.425 12.2524C19.425 12.3517 19.3321 12.3477 19.1793 12.2414C19.0982 12.1847 19.0927 12.1446 19.1588 12.1075C19.1855 12.0927 19.2158 12.0858 19.2463 12.0879ZM28.4687 12.1249C28.3954 12.1201 28.3348 12.154 28.3348 12.2013C28.3348 12.2485 28.3726 12.2895 28.4167 12.2918C28.4608 12.2942 28.5191 12.2603 28.549 12.2154C28.5781 12.1698 28.5427 12.1288 28.4687 12.1249ZM22.2458 12.4257C22.2734 12.4288 22.3112 12.4556 22.3687 12.5076C22.4829 12.6084 22.512 12.7635 22.4994 13.2226L22.4837 13.8085L22.145 13.7873C21.8198 13.7668 21.8064 13.7542 21.8395 13.5258C21.871 13.3108 21.8529 13.2896 21.6647 13.3132C21.4733 13.3384 21.4599 13.3203 21.5135 13.11C21.5528 12.9578 21.5426 12.8979 21.4828 12.9305C21.3158 13.0234 21.0953 12.8706 21.0827 12.6517C21.0685 12.4044 21.2292 12.3761 21.4324 12.5919C21.5064 12.6706 21.5678 12.7037 21.5678 12.6643C21.5678 12.5155 21.9182 12.3879 22.0364 12.4934C22.1206 12.5682 22.16 12.5659 22.1876 12.4855C22.2025 12.4422 22.2191 12.4225 22.2458 12.4257ZM22.8798 13.3195C23.2027 13.34 23.431 14.0487 23.1444 14.1409C22.9656 14.1984 22.9948 14.2117 22.7672 13.955C22.5947 13.7605 22.5797 13.6991 22.6648 13.5195C22.7183 13.4046 22.8152 13.3156 22.8798 13.3195ZM17.5933 13.7983C17.7413 13.7841 17.8453 13.7857 17.9288 13.8038C18.0075 13.8205 18.0792 13.8609 18.1343 13.9196C18.2233 14.0046 18.3753 14.0676 18.4729 14.0582C18.595 14.0464 18.7611 14.1669 18.9958 14.4378C19.1848 14.6559 19.3376 14.8693 19.3376 14.9134C19.3376 14.9575 19.3762 14.974 19.4219 14.9481C19.4675 14.9229 19.603 14.9709 19.7219 15.0559C19.9251 15.2016 19.9385 15.2024 19.9385 15.0638C19.9385 14.9252 19.9526 14.9252 20.1527 15.0685C20.3614 15.2182 20.3661 15.2182 20.3661 15.0071C20.3661 14.8795 20.4157 14.7937 20.4866 14.7976C20.5519 14.8016 20.6267 14.748 20.6543 14.6795C20.7047 14.5496 21.0961 14.5275 21.1693 14.6504C21.1922 14.6882 21.1662 14.8764 21.1142 15.0678C21.0441 15.2904 21.0455 15.5294 21.1181 15.7513C21.1733 15.9348 21.241 16.1742 21.2693 16.2821C21.2977 16.39 21.3654 16.4821 21.4213 16.4868C21.5812 16.501 21.9096 16.8286 21.9096 16.9743C21.9096 17.0467 21.8419 17.1397 21.76 17.1798C21.6781 17.22 21.6395 17.2838 21.6733 17.32C21.782 17.435 21.5568 17.6059 21.3166 17.5909C21.2284 17.5618 20.9701 17.4704 20.9433 17.4681C20.941 17.4681 20.2157 17.6256 20.0849 17.6476C19.9925 17.6274 19.8984 17.6155 19.8038 17.6122C19.6447 17.5531 19.4313 17.6689 19.3392 17.4066C19.3392 17.3531 19.2077 17.2586 19.047 17.1956C18.784 17.0932 18.6527 16.9415 18.6533 16.7404C18.6533 16.701 18.7604 16.6365 18.8895 16.5971L19.1234 16.5262L18.8556 16.5026C18.5824 16.4782 18.4824 16.3545 18.4824 16.038C18.4824 15.9474 18.443 15.871 18.3958 15.8679C18.2753 15.86 18.2894 15.5741 18.4178 15.4465C18.506 15.3591 18.4902 15.3552 18.3312 15.4269C18.2256 15.4741 18.139 15.5922 18.139 15.6867C18.139 15.7812 18.0729 15.8757 17.9894 15.9001C17.8837 15.9368 17.7848 15.9905 17.6965 16.0592C17.5681 16.1616 17.5389 16.1458 17.4208 15.9112C17.3484 15.7671 17.2247 15.6198 17.1468 15.5851C17.0476 15.541 17.0231 15.467 17.0625 15.3347C17.094 15.2308 17.1334 15.0418 17.1531 14.915C17.1728 14.7882 17.2271 14.6118 17.2751 14.5252C17.3303 14.4267 17.3326 14.2669 17.2854 14.0999C17.2106 13.833 17.2145 13.8314 17.5925 13.7983M23.1436 14.407C23.2538 14.4028 23.3917 14.4304 23.557 14.4897C23.8957 14.6126 23.9272 14.6638 23.8035 14.8977C23.761 14.9764 23.6838 15.1449 23.6326 15.2717C23.5814 15.3985 23.4854 15.4985 23.4184 15.4946C23.2586 15.4843 23.1664 15.8663 23.2767 16.0805C23.3255 16.1734 23.3649 16.3144 23.3649 16.3923C23.3649 16.4703 23.4428 16.6388 23.5373 16.7648C23.6681 16.9396 23.687 17.0192 23.6122 17.1034C23.5381 17.1885 23.5468 17.2153 23.6539 17.2216C23.7382 17.2271 23.7925 17.3019 23.7925 17.4121C23.7925 17.5673 23.813 17.5807 23.9264 17.494C24.1185 17.346 24.3248 17.5909 24.3248 17.9689C24.3248 18.1327 24.3579 18.3225 24.3997 18.391C24.443 18.4619 24.476 18.4745 24.4768 18.4201C24.4768 18.3666 24.5422 18.1776 24.6217 17.9996C24.8391 17.5098 24.7178 17.0326 24.3697 17.0113C24.0799 16.9932 23.7665 16.3167 23.8264 15.8403C23.9177 15.1063 24.1744 14.7693 24.6202 14.7976C24.8351 14.811 24.8895 14.8449 24.8525 14.941C24.8084 15.0512 24.832 15.0528 25.0478 14.9544C25.4297 14.7803 26.1818 14.9362 26.4275 15.241C26.533 15.3717 26.6212 15.5182 26.6228 15.5655C26.6283 15.7261 27.0913 16.2947 27.1945 16.2663C27.2512 16.2506 27.367 16.327 27.4512 16.4356C27.5355 16.5443 27.6575 16.679 27.7205 16.7357C28.1104 17.0853 28.3293 17.3932 28.2852 17.5295C28.256 17.6208 28.2812 17.6823 28.3498 17.6878C28.4254 17.6941 28.413 17.7324 28.3127 17.8027C28.1151 17.9413 28.1237 18.0768 28.334 18.1571C28.4285 18.1926 28.5072 18.2556 28.5072 18.2989C28.5072 18.3406 28.5734 18.3564 28.6561 18.3319C28.738 18.3083 28.7774 18.317 28.7419 18.354C28.7073 18.3902 28.8325 18.5713 29.0207 18.7564C29.4066 19.1368 29.4302 19.2478 29.1908 19.5384C29.0987 19.6502 29.0215 19.7904 29.0207 19.8487C29.0199 19.9069 28.979 19.9534 28.9294 19.9503C28.816 19.9432 28.4214 19.4959 28.4175 19.3707C28.4159 19.3187 28.3773 19.3368 28.3309 19.4116C28.2301 19.5793 28.3096 19.825 28.4679 19.8353C28.7467 19.8526 28.9561 20.8716 28.6963 20.9425C28.638 20.9583 28.5915 20.9291 28.5915 20.8779C28.5915 20.8267 28.5577 20.7834 28.5175 20.7811C28.4773 20.7787 28.4632 20.8795 28.486 21.0039C28.5317 21.2441 28.5561 21.2402 28.0135 21.0496C27.9072 21.0126 27.819 20.952 27.819 20.9134C27.819 20.874 27.7245 20.8126 27.6087 20.7763C27.477 20.7272 27.366 20.6344 27.2945 20.5133C27.0748 20.0881 26.8346 19.951 26.5259 20.0731C26.2936 20.1652 26.0723 19.9211 26.1408 19.6502C26.192 19.4486 26.2337 19.4266 26.4361 19.4793C26.7078 19.5502 26.9275 19.4612 26.8409 19.3147C26.8086 19.2596 26.8606 19.1187 26.9575 19.0013C27.0551 18.8832 27.1346 18.7021 27.1346 18.5997C27.1346 18.343 26.6929 17.9035 26.4976 17.9658C26.3771 18.0051 26.3534 17.9736 26.3747 17.809C26.4046 17.5854 26.1566 17.1436 26.0731 17.2728C26.0447 17.3169 25.8833 17.3444 25.7148 17.3342C25.3478 17.3106 25.2439 17.3846 25.4313 17.5342C25.536 17.6169 25.5667 17.7768 25.5596 18.1737C25.547 18.8147 25.2801 19.2021 24.9092 19.1194C24.7091 19.0753 24.7194 19.0982 25.0336 19.3998C25.2218 19.5809 25.4053 19.7305 25.4415 19.7337C25.477 19.7353 25.5061 19.7865 25.5061 19.8455C25.5061 19.9054 25.5848 20.007 25.6809 20.0739C25.777 20.1393 25.8321 20.2282 25.8046 20.2716C25.7353 20.3794 25.358 20.3495 25.2872 20.2298C25.2509 20.1684 25.1651 20.1944 25.043 20.3007C24.8777 20.4456 24.8257 20.4511 24.6249 20.3456C24.3989 20.2267 24.3351 20.0928 24.4516 19.9825C24.4847 19.9518 24.5217 19.8424 24.5351 19.7384L24.5611 19.5494L24.4508 19.7392C24.3902 19.8439 24.2162 19.9959 24.0665 20.0778C23.9161 20.1597 23.7925 20.2763 23.7925 20.3361C23.7925 20.396 23.6712 20.5519 23.5232 20.6826C23.0459 21.1032 22.8514 21.856 23.1908 21.9663C23.2979 22.0009 23.3791 22.1214 23.4113 22.2931C23.4531 22.5183 23.5027 22.5687 23.7027 22.5884C23.8366 22.601 24.0728 22.7128 24.2303 22.8357C24.6737 23.1806 24.9044 23.2971 25.1738 23.3137C25.41 23.3294 25.421 23.3483 25.421 23.7106C25.421 23.9941 25.4754 24.1571 25.6337 24.3461C25.9093 24.676 26.0235 24.5335 25.9227 23.9878C25.855 23.62 25.8676 23.5814 26.107 23.3727C26.2487 23.2499 26.3629 23.116 26.3629 23.0758C26.3613 22.8451 26.1707 22.3576 26.0628 22.3096C25.8975 22.2356 25.8975 21.9883 26.0644 21.9993C26.17 22.0056 26.1896 21.8859 26.1715 21.3426C26.1542 20.7858 26.1707 20.6834 26.2778 20.7196C26.3487 20.7433 26.5629 20.7748 26.7551 20.7913C27.0212 20.8149 27.1567 20.8819 27.3284 21.078C27.452 21.2189 27.6182 21.3481 27.6977 21.3654C27.8024 21.3874 27.8489 21.4914 27.8631 21.7418C27.8757 21.9544 27.9505 22.1608 28.056 22.2726C28.2182 22.4458 28.2356 22.4466 28.3545 22.3159C28.4238 22.2395 28.5057 22.0765 28.5372 21.9529C28.5931 21.7339 28.8498 21.6442 28.8498 21.8434C28.8498 21.8985 28.9034 22.0096 28.9695 22.0875C29.0365 22.1663 29.1735 22.4813 29.2743 22.7884C29.4735 23.3948 29.5696 23.5326 29.8649 23.6444C29.9712 23.6854 30.1012 23.8153 30.1523 23.9326C30.2043 24.0492 30.2941 24.1468 30.3524 24.1508C30.4862 24.1587 30.5611 24.6445 30.4445 24.754C30.3847 24.8086 30.391 24.8383 30.4634 24.843C30.5422 24.8477 30.5453 24.8902 30.4752 25.0162C30.3689 25.2092 30.5319 25.447 30.78 25.4628C30.8721 25.4683 30.906 25.5179 30.8745 25.5982C30.8469 25.6667 30.8587 25.7242 30.8981 25.7274C31.0178 25.7352 31.0745 26.0951 30.9832 26.2613C30.9146 26.3841 30.865 26.3952 30.7296 26.3133C30.6359 26.2573 30.5233 26.2329 30.4799 26.2566C30.4366 26.2802 30.3791 26.2581 30.3492 26.2093C30.3201 26.1589 30.1626 26.1101 29.9988 26.0991C29.7381 26.0833 29.7043 26.0573 29.731 25.8904C29.7476 25.7856 29.8334 25.5596 29.92 25.3887C30.0972 25.043 30.0445 24.8895 29.8137 25.0832C29.6973 25.1664 29.5648 25.2244 29.4247 25.2533C29.2341 25.2895 29.2058 25.3226 29.2853 25.4226C29.3641 25.5234 29.3436 25.5447 29.1806 25.5321C29.0465 25.5142 28.9193 25.4621 28.8112 25.3809C28.6214 25.2257 28.334 25.1832 28.334 25.31C28.334 25.3572 28.4545 25.4045 28.6018 25.4139C28.8553 25.4297 28.8671 25.4439 28.8175 25.6903C28.7593 25.977 28.8616 26.1392 29.164 26.2361C29.2806 26.2747 29.3688 26.2542 29.3971 26.181C29.4633 26.0124 29.5987 26.0479 29.6617 26.2503C29.7279 26.4613 29.5948 26.5983 29.1908 26.7314C29.0262 26.7865 28.8317 26.8779 28.7577 26.9362C28.5451 27.1015 28.4214 27.0504 28.4143 26.7928C28.4104 26.6637 28.3883 26.6031 28.3655 26.6582C28.3419 26.7133 28.1923 26.7921 28.0332 26.8346C27.7418 26.9133 27.5323 27.2362 27.7237 27.3118C27.8552 27.3638 27.8465 27.5071 27.7127 27.4992C27.515 27.4874 26.9472 27.6363 26.9945 27.6867C27.0205 27.7142 26.9449 27.9198 26.8267 28.145C26.7062 28.3765 26.6354 28.6254 26.6637 28.7175C26.7007 28.8356 26.6259 28.9396 26.3904 29.1018C25.8266 29.4892 25.5919 29.705 25.5919 29.8373C25.5919 29.9082 25.6565 30.1736 25.7353 30.4279C25.8526 30.8067 25.8581 30.9115 25.7668 31.0154C25.7069 31.0847 25.6305 31.1406 25.5982 31.1383C25.5124 31.1328 25.1651 30.4705 25.1651 30.3122C25.1651 30.1287 25.0911 30.0901 24.5194 29.9877C24.0784 29.909 24.0272 29.9161 24.0752 30.0444C24.1351 30.2027 23.9153 30.2114 23.4082 30.0696C23.2239 30.0177 23.0751 30.0421 22.8821 30.1539C22.638 30.2956 22.6049 30.3634 22.553 30.8626C22.4908 31.4564 22.5671 31.7809 22.8365 32.0659C23.0562 32.2998 23.6476 32.2557 23.6925 32.0029C23.7163 31.8977 23.7755 31.8037 23.8602 31.7368C24.0035 31.6344 24.5642 31.6305 24.5642 31.732C24.5642 31.7974 24.4083 32.2935 24.2989 32.5778C24.2303 32.7534 24.2477 32.7676 24.5587 32.7873C25.1076 32.8212 25.1651 32.8755 25.1651 33.3779C25.1651 33.9646 25.3951 34.2891 25.7211 34.1607C25.7917 34.1311 25.868 34.1172 25.9446 34.1201C26.0211 34.1229 26.0962 34.1424 26.1644 34.1772C26.3613 34.2646 26.4196 34.2513 26.5716 34.0827C26.7543 33.8796 27.4772 33.6874 27.4772 33.841C27.4772 33.8859 27.5528 33.9032 27.6457 33.8788C27.7379 33.8551 27.9017 33.889 28.008 33.9528C28.1151 34.0166 28.4254 34.0796 28.6986 34.0945C29.1199 34.1166 29.2333 34.1583 29.4436 34.3639C30.0382 34.945 30.2713 35.1136 30.5044 35.1277C30.9233 35.1537 31.2895 35.4089 31.4517 35.7877C31.5344 35.9798 31.5777 36.1728 31.5478 36.2184C31.5462 36.2208 31.5982 36.2263 31.6029 36.2295L31.5872 36.2405L32.1471 36.4311L32.4322 36.6216C32.5881 36.7264 32.8968 36.8476 33.1173 36.891C33.3378 36.9343 33.6331 37.0642 33.7748 37.1784C33.9166 37.2926 34.1095 37.4044 34.204 37.4272C34.3363 37.4595 34.3804 37.5469 34.4009 37.8178C34.423 38.125 34.3773 38.225 34.0363 38.6179C33.7174 38.9849 33.6473 39.1298 33.6473 39.4102C33.6473 39.8173 33.5181 40.2134 33.2535 40.6206C33.1 40.8568 32.9897 40.9245 32.718 40.9513C32.2581 40.9962 31.847 41.3206 31.847 41.6404C31.847 41.8845 31.5817 42.3633 31.2722 42.672C31.1425 42.8098 31.0213 42.9552 30.9091 43.1075C30.7398 43.3406 30.6682 43.3744 30.4327 43.3319C30.1555 43.2823 30.1098 43.3445 30.2524 43.5816C30.4272 43.8729 29.9689 44.262 29.4885 44.232C29.3278 44.2218 29.264 44.2809 29.2066 44.4935C29.1443 44.7219 29.0955 44.7612 28.9049 44.7368C28.7789 44.7195 28.6774 44.7415 28.6774 44.7856C28.6774 44.8297 28.7301 44.8691 28.7955 44.8731C28.9939 44.8857 29.0286 45.1353 28.8451 45.2227C28.7522 45.266 28.6774 45.3668 28.6774 45.4456C28.6774 45.5243 28.5718 45.6708 28.4419 45.77L28.2056 45.9511L28.4049 46.1331C28.6293 46.3378 28.6065 46.5441 28.3332 46.7741C28.2395 46.8528 28.1639 46.9576 28.1639 47.0032C28.1639 47.0505 28.097 47.1316 28.0159 47.1852C27.8914 47.2686 27.8867 47.319 27.9741 47.5175C28.0316 47.6458 28.0773 47.8199 28.0773 47.9034C28.0773 48.0758 28.4183 48.4499 28.5836 48.4601C28.6435 48.4641 28.6758 48.5152 28.6561 48.5727C28.6214 48.6751 28.0143 48.6822 27.5804 48.5861C27.4491 48.5572 27.3924 48.4958 27.4103 48.4018C27.426 48.3239 27.3638 48.216 27.2732 48.1632C27.1794 48.1072 27.1007 48.0291 27.0441 47.9356C26.9126 47.6679 26.7732 46.8229 26.8055 46.4882C26.8291 46.2362 26.8102 46.1535 26.7299 46.1795C26.6629 46.2008 26.6212 46.1425 26.6212 46.0252C26.6212 45.9086 26.6858 45.8236 26.7921 45.8023C26.8866 45.7834 26.9638 45.6999 26.9638 45.6149C26.9638 45.5298 26.9874 45.3999 27.0165 45.3274C27.0517 45.2382 27.0199 45.1909 26.9212 45.1857C26.8086 45.1786 26.7858 45.1306 26.8267 44.9872C26.8567 44.8833 26.9039 44.5486 26.9299 44.2446C26.9567 43.9399 27.052 43.5138 27.1425 43.2981C27.2331 43.0823 27.3055 42.7421 27.3055 42.5389C27.3055 42.3349 27.3654 41.8695 27.4363 41.5049C27.5071 41.1403 27.5638 40.5709 27.5638 40.241C27.5638 39.7236 27.5363 39.6173 27.3701 39.4692C27.2638 39.3732 27.1457 39.2928 27.1055 39.2881C26.8637 39.2645 26.5007 38.818 26.1904 38.162C25.9983 37.758 25.7668 37.3532 25.6754 37.2642C25.5077 37.1028 25.4518 36.7823 25.5722 36.6689C25.6077 36.6358 25.6368 36.4878 25.6368 36.3381V36.068L25.7644 35.8814C25.7644 35.8459 25.8707 35.7097 25.9999 35.579C26.129 35.4475 26.2227 35.26 26.2101 35.1632C26.1361 34.5773 26.0888 34.4245 25.9746 34.4174C25.9583 34.4165 25.942 34.4191 25.9268 34.4248C25.9115 34.4305 25.8975 34.4394 25.8859 34.4508C25.8742 34.4622 25.865 34.4759 25.8588 34.491C25.8527 34.5061 25.8498 34.5224 25.8502 34.5387C25.8502 34.6828 25.6321 34.6993 25.551 34.5623C25.531 34.5351 25.5053 34.5126 25.4759 34.4961C25.4464 34.4797 25.4137 34.4698 25.3801 34.467C25.2218 34.4568 24.6595 34.0567 24.6509 33.9481C24.6359 33.7575 24.3288 33.4913 23.965 33.3535C23.7523 33.2732 23.4688 33.1117 23.3342 32.9928C23.1467 32.8282 23.0255 32.7857 22.8176 32.8117C22.6128 32.8377 22.3766 32.7582 21.8647 32.4936C21.0457 32.0691 20.8661 31.9108 20.9284 31.6667C20.9622 31.5344 20.8787 31.3777 20.6071 31.0737C20.029 30.4256 19.6054 29.8594 19.5132 29.6113C19.4668 29.4853 19.3872 29.3798 19.34 29.3774C19.2006 29.3688 19.2376 29.4987 19.4455 29.7538C19.5518 29.8838 19.7345 30.1807 19.8518 30.4138C19.9692 30.6469 20.1157 30.8705 20.1747 30.9123C20.2054 30.936 20.2307 30.9659 20.2491 31.0001C20.2674 31.0343 20.2783 31.072 20.281 31.1107C20.281 31.1792 20.2338 31.2312 20.1747 31.2257C20.0164 31.2123 19.5762 30.776 19.6337 30.6878C19.6605 30.6461 19.5581 30.5169 19.4045 30.4012C19.2965 30.3209 19.1896 30.239 19.084 30.1555C19.062 30.1366 19.0998 30.0901 19.1675 30.0531C19.273 29.9932 19.2691 29.9586 19.1384 29.8184C19.0541 29.7286 18.895 29.4774 18.7864 29.2593C18.6737 29.0333 18.4824 28.801 18.343 28.7238C18.0469 28.5584 17.9744 28.4623 17.6201 27.7497C17.3562 27.2205 17.3444 27.1551 17.3342 26.1195C17.3248 25.1635 17.3051 25.0249 17.1602 24.9107C16.6601 24.5138 16.4987 24.3051 16.601 24.1894C16.6798 24.098 16.6688 24.0201 16.5499 23.8271C16.4656 23.6932 16.3467 23.5499 16.2837 23.5082C16.2207 23.4664 16.1679 23.3381 16.1679 23.2215C16.1679 23.1058 16.0899 22.9388 15.9955 22.853C15.901 22.7671 15.8254 22.6459 15.8254 22.5868C15.8254 22.4388 15.5545 22.1151 15.4702 22.1616C15.4324 22.1828 15.3773 22.0986 15.3466 21.9773C15.3127 21.8387 15.2332 21.7544 15.1316 21.7489C15.0426 21.7426 14.7929 21.5914 14.5764 21.4126C14.3031 21.1874 14.0936 21.0827 13.8889 21.0701C13.7212 21.0598 13.4471 20.9488 13.2534 20.8149C13.0659 20.6842 12.9116 20.6141 12.9116 20.6574C12.9116 20.7015 12.9604 20.7574 13.0195 20.7811C13.1038 20.8141 13.103 20.8504 13.0132 20.9527C12.951 21.0244 12.8462 21.0606 12.7809 21.0315C12.7155 21.0024 12.5746 21.0339 12.4675 21.1024C12.1514 21.3045 12.0249 21.2528 12.0879 20.9472L12.1414 20.6811L11.969 20.8882C11.8745 21.0031 11.8193 21.1551 11.8461 21.2268C11.8729 21.2985 11.8548 21.3804 11.8044 21.4079C11.7777 21.4242 11.7555 21.4468 11.7397 21.4737C11.7239 21.5006 11.715 21.5311 11.7138 21.5623C11.7154 21.6182 11.7563 21.5985 11.8044 21.519C11.8524 21.4402 11.9453 21.378 12.0107 21.3819C12.2249 21.3953 12.1068 21.7836 11.8217 22.0048L11.5461 22.2206L11.5705 21.919C11.5973 21.5835 11.6201 21.5764 11.0035 22.1017C10.8098 22.2671 10.62 22.3805 10.5822 22.3537C10.5428 22.3285 10.5129 22.3695 10.5129 22.4451C10.5129 22.5214 10.4743 22.5585 10.4294 22.5277C10.3845 22.497 10.2113 22.5222 10.0435 22.5821C9.6797 22.7112 9.61276 22.7144 9.61276 22.6096C9.61276 22.527 10.2144 22.1269 10.3278 22.134C10.4444 22.1419 10.9184 21.6615 10.9649 21.4898C11.0019 21.3512 10.9846 21.3355 10.8554 21.3961C10.742 21.4497 10.6877 21.4331 10.6523 21.3394C10.6184 21.2481 10.5294 21.2213 10.3483 21.2465C10.1136 21.2796 10.0955 21.2654 10.1294 21.0795C10.1616 20.9039 10.1333 20.8748 9.93249 20.8638C9.749 20.8551 9.6986 20.8118 9.69624 20.6637C9.69466 20.5606 9.60174 20.3897 9.48991 20.2857C9.30642 20.1148 9.29619 20.0763 9.39777 19.8936C9.5096 19.6904 10.0876 19.2927 10.2538 19.3029C10.364 19.3092 10.3695 19.0809 10.2617 19.0076C10.2511 19.0004 10.2391 18.9954 10.2265 18.993C10.2139 18.9906 10.201 18.9907 10.1885 18.9935C10.1759 18.9962 10.1641 19.0014 10.1537 19.0089C10.1432 19.0163 10.1344 19.0258 10.1278 19.0368C10.0979 19.084 10.027 19.0903 9.97107 19.0501C9.90151 19.0058 9.82392 18.9756 9.7427 18.9612C9.65408 18.9494 9.56562 18.9365 9.47731 18.9226C9.33241 18.9005 9.14184 18.5501 9.14184 18.3044C9.14184 18.1461 9.54819 17.887 9.77577 17.9012C9.85137 17.9059 9.9128 17.9681 9.9128 18.0382C9.9128 18.1091 9.9695 18.1713 10.0404 18.1752C10.1112 18.18 10.1711 18.1075 10.1711 18.0122C10.1711 17.9177 10.1333 17.839 10.0884 17.835C10.0427 17.8327 9.83326 17.6508 9.62221 17.4326C9.33084 17.1318 9.24894 16.9924 9.28516 16.8554C9.31902 16.7278 9.40014 16.6782 9.56394 16.6876C9.74979 16.6995 9.82381 16.6404 9.94351 16.3774C10.0853 16.0639 10.6089 15.6733 10.82 15.7237C10.8712 15.7356 10.9822 15.6741 11.0665 15.5867C11.2019 15.445 11.2452 15.4418 11.4445 15.5544C11.5681 15.6245 11.7752 15.7135 11.9044 15.7529C12.0343 15.7923 12.1414 15.8623 12.1414 15.908C12.1414 15.9545 12.2588 15.9994 12.4013 16.008C12.5438 16.0167 12.7982 16.0899 12.9675 16.171C13.1368 16.2522 13.4227 16.3285 13.6022 16.3404C13.7818 16.3522 13.9503 16.3955 13.9763 16.4388C14.0023 16.4821 14.1543 16.5514 14.3134 16.5908C14.4724 16.6302 14.6701 16.7436 14.7543 16.842C14.9748 17.0995 15.1402 17.0798 15.7285 16.7239C16.0963 16.5002 16.3018 16.4262 16.4246 16.4727C16.5388 16.516 16.5924 16.5042 16.5774 16.4356C16.564 16.3782 16.6018 16.3175 16.6617 16.2986C16.7247 16.2797 16.8271 16.4057 16.9113 16.6034L17.0539 16.9404L17.1421 16.7113C17.2444 16.4427 17.3303 16.4199 17.3893 16.6514C17.42 16.7703 17.4878 16.8089 17.6366 16.7892C17.7555 16.7735 18.0272 16.868 18.2816 17.0113C18.5225 17.1475 18.8139 17.2633 18.9273 17.2712C19.0361 17.2796 19.14 17.3202 19.2258 17.3877L19.3856 17.6397C19.3959 17.6634 19.3494 17.7201 19.2722 17.7736C19.1407 17.8657 19.162 17.8815 19.4502 17.9012C19.6306 17.9146 19.8495 17.8894 19.9385 17.8476C20.0456 17.7972 20.1164 17.802 20.1511 17.8618C20.181 17.9106 20.2613 17.9539 20.3299 17.9587C20.5204 17.8311 20.7551 17.546 21.3127 17.8484C21.3993 17.8531 21.4914 17.8941 21.5174 17.9382C21.5442 17.9823 21.6977 18.024 21.8592 18.0295C22.0939 18.0374 22.1592 17.9996 22.1899 17.8429C22.2136 17.7169 22.1868 17.6445 22.1112 17.6397C21.9584 17.6303 21.9616 17.6106 22.1805 17.2523L22.3679 16.9483L22.6498 17.2728C22.8286 17.4783 22.9538 17.5641 22.9908 17.5066C23.0239 17.4555 22.9491 17.3208 22.8262 17.2074C22.6483 17.0436 22.6057 16.9302 22.6097 16.6341C22.6128 16.4309 22.6703 16.1813 22.7388 16.0805C22.831 15.9458 22.8491 15.7734 22.8065 15.4269C22.7199 14.7339 22.8121 14.4196 23.1436 14.407ZM21.9096 14.5764C21.9994 14.568 22.1219 14.568 22.2773 14.5764L22.6034 14.5921L22.5561 14.8914C22.5238 15.0898 22.5482 15.2355 22.627 15.319C22.7947 15.4977 22.7388 15.9419 22.5246 16.1277C22.275 16.3459 22.1411 16.3144 22.008 16.0065C21.945 15.8616 21.8537 15.7403 21.8033 15.7371C21.6773 15.7293 21.4859 15.4481 21.482 15.267C21.4788 15.0937 21.6544 15.0788 21.8048 15.2394C21.9371 15.3796 21.9371 15.2717 21.8048 15.0237C21.641 14.715 21.6379 14.6016 21.9096 14.5764ZM26.4613 18.1044C26.503 18.0927 26.5472 18.0927 26.5889 18.1044C26.7031 18.1335 26.7503 18.2209 26.7503 18.4036C26.7503 18.6186 26.711 18.6603 26.5133 18.6706C26.3164 18.6808 26.2786 18.6509 26.2794 18.4847C26.281 18.2737 26.3487 18.1382 26.4613 18.1044ZM18.0296 18.5398C18.0165 18.5361 18.0028 18.535 17.9892 18.5366C17.9757 18.5383 17.9627 18.5426 17.9508 18.5493C17.8941 18.5818 17.903 18.6254 17.9776 18.68C18.0516 18.732 18.0642 18.784 18.0099 18.8218C17.8445 18.9352 17.6886 19.1651 17.7744 19.1706C17.8225 19.1738 17.8831 19.1234 17.9083 19.058C17.9335 18.9927 18.0721 18.9226 18.2154 18.8997C18.5477 18.8478 18.6446 18.7099 18.3619 18.6918C18.2438 18.6847 18.1241 18.6391 18.0941 18.5895C18.0797 18.5653 18.0566 18.5475 18.0296 18.5398ZM26.1385 20.2905C26.2046 20.2944 26.2802 20.3582 26.3078 20.4298C26.3574 20.5621 26.1873 20.6039 26.077 20.4873C25.981 20.385 26.0125 20.2826 26.1385 20.2905ZM25.3636 20.511C25.499 20.5488 25.499 20.5661 25.3746 20.7362C25.2439 20.9134 24.9911 20.9779 24.9911 20.8346C24.9911 20.6787 25.2273 20.4739 25.3636 20.511ZM9.36312 20.5338C9.5222 20.544 9.57575 20.5858 9.55527 20.6881C9.52456 20.8433 9.41352 20.8874 9.24894 20.811C9.05206 20.7196 9.13396 20.5196 9.36312 20.5338ZM19.4573 20.6283C19.414 20.5999 19.2848 20.6629 19.1683 20.7677C18.9187 20.9905 19.058 21.037 19.3415 20.8244C19.4494 20.7448 19.5006 20.6566 19.4573 20.6283ZM25.84 20.785C25.9613 20.7929 25.9936 20.8386 25.9605 20.9661C25.9093 21.1575 25.814 21.2339 25.7321 21.148C25.61 21.0189 25.6825 20.7748 25.84 20.785ZM9.38911 22.7026C9.42901 22.7026 9.46497 22.7131 9.497 22.7341C9.54267 22.7656 9.51039 22.838 9.42455 22.8979C9.22452 23.0373 9.14105 23.0333 9.14105 22.8845C9.14105 22.7821 9.27177 22.701 9.38911 22.7026ZM15.8151 23.0774C15.9435 23.0853 15.9962 23.1428 16.001 23.2806C16.0049 23.3869 16.0246 23.5617 16.0443 23.6696C16.0876 23.9043 16.0624 23.9098 15.886 23.7035C15.7974 23.5839 15.7322 23.4487 15.6938 23.305C15.6434 23.1003 15.6608 23.0688 15.8151 23.0774ZM22.3183 23.8248C22.2411 23.8216 22.2451 23.8468 22.3348 23.9098C22.4057 23.9602 22.4333 24.0012 22.3947 23.9996C22.3569 23.998 22.3514 24.0382 22.3829 24.0901C22.4632 24.2256 22.5388 24.1272 22.4774 23.9657C22.4498 23.8909 22.3781 23.8287 22.3183 23.8255M24.339 25.4478C24.2445 25.4454 24.154 25.4761 24.0335 25.5399C23.7704 25.6785 23.7011 25.8518 23.9421 25.7675C24.2374 25.6644 24.3989 25.6462 24.3855 25.7203C24.354 25.8841 24.3997 25.9392 24.528 25.8982C24.5973 25.8755 24.6694 25.8625 24.7422 25.8597C24.8816 25.8683 24.8249 25.6289 24.6698 25.5525C24.5312 25.4832 24.4335 25.4502 24.339 25.4478ZM25.1375 26.2014C25.1242 26.2203 25.1588 26.3054 25.236 26.4952C25.3139 26.685 25.3872 26.8417 25.399 26.8425C25.4108 26.8432 25.4203 26.7369 25.4203 26.607C25.4203 26.4676 25.3541 26.3259 25.2572 26.2597C25.2289 26.2388 25.1991 26.2199 25.1683 26.203C25.1525 26.1957 25.142 26.1951 25.1368 26.2014M24.6674 26.2361C24.6497 26.2363 24.6321 26.2395 24.6154 26.2455C24.4792 26.2896 24.3949 26.5361 24.3934 26.8929C24.3934 27.033 24.4288 27.1134 24.4784 27.0858C24.5257 27.059 24.5414 26.9425 24.5123 26.8259H24.5107C24.4967 26.7541 24.4972 26.6802 24.512 26.6085C24.5269 26.5369 24.5559 26.4689 24.5973 26.4085C24.6784 26.2904 24.7005 26.2408 24.6674 26.2361ZM25.5817 26.255C25.5344 26.2518 25.5187 26.2904 25.5478 26.3392C25.577 26.3881 25.6408 26.4306 25.688 26.4337C25.7353 26.4369 25.7494 26.3991 25.7203 26.3503C25.6912 26.3014 25.6289 26.2581 25.5817 26.255ZM26.0959 30.6925C26.2172 30.687 26.3637 30.7792 26.3637 30.8973C26.3637 30.9627 26.344 31.0154 26.3204 31.0138C26.2967 31.0123 26.2771 30.9721 26.2771 30.9249C26.2771 30.8776 26.1928 30.8343 26.0896 30.828C25.9597 30.8201 25.9274 30.791 25.9873 30.7335C26.0177 30.7077 26.0561 30.6933 26.0959 30.6925ZM10.6845 30.7264C10.7318 30.7288 10.7688 30.7697 10.7688 30.817C10.769 30.8279 10.7668 30.8388 10.7625 30.8489C10.7582 30.859 10.7519 30.868 10.7439 30.8755C10.7359 30.883 10.7264 30.8887 10.716 30.8924C10.7057 30.896 10.6947 30.8974 10.6838 30.8965C10.6609 30.8944 10.6396 30.8841 10.6238 30.8674C10.608 30.8507 10.5988 30.8289 10.5979 30.8059C10.5979 30.7587 10.6373 30.7233 10.6845 30.7264ZM10.9027 30.8248C11.0547 30.8343 11.6272 31.2847 11.6272 31.395C11.6272 31.4265 11.5666 31.4706 11.4949 31.4934C11.4077 31.5213 11.3379 31.4653 11.2854 31.3257C11.2421 31.2107 11.1279 31.0855 11.0318 31.0493C10.8759 30.9902 10.7759 30.817 10.9027 30.8248ZM26.1251 31.0375C26.1377 31.0342 26.151 31.0339 26.1638 31.0365C26.1766 31.039 26.1887 31.0445 26.1991 31.0524C26.3022 31.1233 26.3015 31.3556 26.1975 31.3493C26.1526 31.3462 26.0928 31.3021 26.0636 31.254C26.0109 31.1658 26.055 31.0579 26.1235 31.0383L26.1251 31.0375ZM25.362 31.3918C25.462 31.3974 25.5904 31.4296 25.7951 31.4919C26.0605 31.5722 26.2771 31.6627 26.2771 31.6919C26.2771 31.721 26.4897 31.8525 26.7496 31.9833C27.1425 32.1801 27.2197 32.2549 27.2197 32.4369C27.2197 32.6227 27.1811 32.6518 26.9551 32.6377C26.8102 32.629 26.6747 32.6046 26.6558 32.5841C26.5747 32.4983 26.6291 32.4038 26.7543 32.4117C26.8275 32.4164 26.8629 32.3794 26.8338 32.3305C26.8047 32.2817 26.6503 32.2345 26.4913 32.2242C26.3054 32.2124 26.1605 32.1455 26.0896 32.0384C25.94 31.8155 25.4265 31.6698 25.3258 31.821C25.2643 31.9116 25.236 31.9108 25.1793 31.8179C25.1368 31.7502 25.0438 31.7242 24.9525 31.7533C24.7162 31.8297 24.832 31.5887 25.0958 31.4564C25.1762 31.4091 25.2688 31.3866 25.362 31.3918ZM26.9204 31.5659C26.9913 31.5706 27.0496 31.6092 27.0496 31.6533C27.0496 31.7612 26.9149 31.8313 26.8464 31.758C26.7496 31.6557 26.7873 31.558 26.9204 31.5659ZM27.0724 31.9108C27.1748 31.9273 27.1551 32.0439 27.0449 32.0738C26.9882 32.0888 26.9567 32.0565 26.9756 32.0014C26.9945 31.9462 27.0386 31.9045 27.0724 31.9108ZM27.5 32.1998C27.7127 32.2132 28.0765 32.455 28.0765 32.5841C28.0765 32.629 27.9686 32.6581 27.8371 32.6503C27.7048 32.6424 27.5567 32.6731 27.5095 32.718C27.4615 32.7629 27.3953 32.7708 27.363 32.7361C27.3315 32.7022 27.3047 32.5652 27.3047 32.4321C27.3047 32.236 27.3425 32.1896 27.5 32.1998ZM26.2692 32.3904C26.3158 32.3925 26.3617 32.4029 26.4046 32.4211C26.4755 32.4526 26.5338 32.5188 26.5338 32.5676C26.5338 32.681 26.1337 32.6558 26.0636 32.5377C26.0132 32.4534 26.1329 32.3865 26.2692 32.3904ZM28.3553 32.5274C28.4608 32.5487 28.5474 32.6046 28.5474 32.6518C28.5474 32.6991 28.4608 32.7448 28.3553 32.7534C28.2222 32.7637 28.1631 32.7235 28.1631 32.6274C28.1631 32.5306 28.2222 32.4999 28.3553 32.5274ZM30.1657 51.8164C30.3476 51.8275 30.3469 52.0637 30.1642 52.0889C30.0303 52.1062 29.8019 52.6213 29.6208 53.3143C29.3798 54.8334 29.4908 55.7839 29.9783 56.5241C30.8485 57.5085 35.5223 58.4724 36.6917 60.3238C33.678 59.3418 24.8084 57.9377 21.6741 57.629L21.6198 57.2242C21.5812 56.9415 21.5969 56.7997 21.6718 56.7564C21.7442 56.716 21.7161 56.6916 21.5875 56.6832C21.4812 56.6753 21.389 56.6399 21.3843 56.6044C21.3008 55.9981 21.3347 55.8847 21.634 55.7784C21.7978 55.7201 22.071 55.6965 22.2411 55.7264C22.4112 55.7563 22.5931 55.7476 22.6459 55.7075C22.7099 55.6581 22.779 55.7253 22.853 55.9091C22.9593 56.1721 22.9766 56.1816 23.357 56.1524C24.0012 56.102 24.3327 56.1398 24.7619 56.3123C25.3541 56.5501 26.2763 56.5785 26.1432 56.3556C26.1172 56.3115 26.1952 56.2816 26.3164 56.2894C26.4393 56.2973 26.5606 56.3548 26.5834 56.417C26.6062 56.4792 26.7094 56.5407 26.8141 56.5548C26.9256 56.5741 27.0265 56.6328 27.0984 56.7202C27.2496 56.936 27.2827 56.8903 27.226 56.5399C27.189 56.3083 27.1268 56.2044 27.0047 56.1753C26.8212 56.1319 26.6204 55.9083 26.6204 55.7476C26.6204 55.6925 26.707 55.6138 26.8126 55.5705L27.0063 55.4917L26.7905 55.3941C26.6054 55.3074 26.5968 55.2877 26.7259 55.2429C26.833 55.2066 26.8614 55.1334 26.8244 54.9846C26.7866 54.8318 26.8149 54.7641 26.9323 54.7278C27.0402 54.6886 27.1384 54.6263 27.2197 54.5451C27.2906 54.4711 27.4276 54.3735 27.5245 54.3278C27.6678 54.2608 27.719 54.2774 27.8048 54.4191C27.9072 54.5908 27.9095 54.59 28.0883 54.4349C28.245 54.2986 28.2623 54.2167 28.2143 53.845C28.1639 53.467 28.1796 53.404 28.3324 53.3316C28.4269 53.2859 28.5057 53.2009 28.5057 53.141C28.5057 53.0804 28.5821 52.9528 28.6766 52.8575C28.7711 52.763 28.849 52.663 28.849 52.637C28.849 52.5598 29.1845 52.2693 29.2688 52.2748C29.3121 52.2771 29.3609 52.2496 29.3766 52.2133C29.4239 52.1047 30.0145 51.807 30.1657 51.8164ZM17.1901 56.2201L17.9989 56.5399C18.6037 56.7785 18.8879 56.8517 19.1155 56.8234C19.3006 56.7997 19.4234 56.8186 19.4234 56.8706C19.4234 56.9179 19.5896 56.9903 19.7928 57.0336C20.0141 57.0809 20.2275 57.1911 20.3283 57.3116L20.5204 57.3289C20.5362 57.2163 20.6291 57.1305 20.7598 57.1061C21.0307 57.0549 21.163 57.1431 21.1111 57.3415C21.0874 57.4266 21.1142 57.5904 21.1678 57.6148C18.5863 57.3156 16.8948 57.1297 14.5181 57.2841C14.589 57.2423 14.989 57.0431 15.1741 57.0533C15.371 57.0651 15.6545 56.9982 15.8632 56.8887C16.0569 56.7871 16.3593 56.6863 16.5349 56.6643C16.7223 56.6407 16.9247 56.5399 17.0231 56.4217L17.1901 56.2201Z" fill="#FE950B"/>
</g>
<defs>
<clipPath id="clip0_9_2102">
<rect width="78.75" height="78.75" fill="white" transform="translate(0.625 0.625)"/>
</clipPath>
</defs>
</svg>
