<svg width="90" height="90" viewBox="0 0 90 90" fill="none" xmlns="http://www.w3.org/2000/svg">
<path d="M86.025 36.075H86.25C87.2446 36.075 88.1984 35.6799 88.9017 34.9767C89.6049 34.2734 90 33.3196 90 32.325V28.575C90 27.5804 89.6049 26.6266 88.9017 25.9234C88.1984 25.2201 87.2446 24.825 86.25 24.825H81.1875C80.3111 24.8294 79.4478 25.0384 78.6665 25.4356C77.8852 25.8328 77.2075 26.407 76.6875 27.1125C76.632 27.1496 76.5667 27.1694 76.5 27.1694C76.4333 27.1694 76.368 27.1496 76.3125 27.1125C76.2526 27.0899 76.1982 27.0548 76.1529 27.0096C76.1077 26.9643 76.0726 26.9099 76.05 26.85L74.25 17.85C73.7389 15.302 72.3615 13.0096 70.3517 11.3621C68.3419 9.7146 65.8237 8.81372 63.225 8.8125H26.775C24.1604 8.81884 21.6296 9.7357 19.6176 11.4055C17.6056 13.0753 16.2381 15.3938 15.75 17.9625L13.95 26.9625C13.9274 27.0224 13.8923 27.0768 13.8471 27.1221C13.8018 27.1673 13.7474 27.2024 13.6875 27.225C13.632 27.2621 13.5667 27.2819 13.5 27.2819C13.4333 27.2819 13.368 27.2621 13.3125 27.225C12.7925 26.5195 12.1148 25.9453 11.3335 25.5481C10.5522 25.1509 9.68893 24.9419 8.8125 24.9375H3.75C2.75544 24.9375 1.80161 25.3326 1.09835 26.0359C0.395088 26.7391 0 27.6929 0 28.6875L0 32.4375C0 33.4321 0.395088 34.3859 1.09835 35.0892C1.80161 35.7924 2.75544 36.1875 3.75 36.1875H3.975C4.16225 36.1899 4.34447 36.2484 4.4982 36.3553C4.65192 36.4623 4.7701 36.6128 4.8375 36.7875C4.93021 36.9401 4.97923 37.1152 4.97923 37.2938C4.97923 37.4723 4.93021 37.6474 4.8375 37.8C1.81267 40.8323 0.0790439 44.9177 0 49.2L0 64.2C0.000184992 65.2632 0.303726 66.3043 0.874979 67.2011C1.44623 68.0978 2.26148 68.8129 3.225 69.2625C3.38033 69.3478 3.51056 69.4723 3.60269 69.6236C3.69481 69.775 3.74561 69.9479 3.75 70.125V75.45C3.75 76.9418 4.34263 78.3726 5.39752 79.4275C6.45242 80.4824 7.88316 81.075 9.375 81.075H16.875C18.3668 81.075 19.7976 80.4824 20.8525 79.4275C21.9074 78.3726 22.5 76.9418 22.5 75.45V70.8C22.4998 70.5478 22.5974 70.3053 22.7722 70.1235C22.947 69.9417 23.1855 69.8347 23.4375 69.825H66.5625C66.8145 69.8347 67.053 69.9417 67.2278 70.1235C67.4026 70.3053 67.5002 70.5478 67.5 70.8V75.45C67.5 76.9418 68.0926 78.3726 69.1475 79.4275C70.2024 80.4824 71.6332 81.075 73.125 81.075H80.625C82.1168 81.075 83.5476 80.4824 84.6025 79.4275C85.6574 78.3726 86.25 76.9418 86.25 75.45V70.125C86.2544 69.9479 86.3052 69.775 86.3973 69.6236C86.4894 69.4723 86.6197 69.3478 86.775 69.2625C87.7385 68.8129 88.5538 68.0978 89.125 67.2011C89.6963 66.3043 89.9998 65.2632 90 64.2V49.2C89.9901 44.8997 88.3093 40.7716 85.3125 37.6875C85.2198 37.5349 85.1708 37.3598 85.1708 37.1813C85.1708 37.0027 85.2198 36.8276 85.3125 36.675C85.3687 36.5216 85.464 36.3855 85.589 36.2803C85.7139 36.175 85.8643 36.1043 86.025 36.075ZM12.1875 66.075H5.625C5.12772 66.075 4.65081 65.8775 4.29917 65.5258C3.94754 65.1742 3.75 64.6973 3.75 64.2V62.325C3.75 61.8277 3.94754 61.3508 4.29917 60.9992C4.65081 60.6475 5.12772 60.45 5.625 60.45H12.1875C12.9368 60.4599 13.6522 60.7645 14.1786 61.2979C14.705 61.8313 15.0001 62.5506 15 63.3C14.9901 64.0394 14.6895 64.7452 14.1631 65.2645C13.6367 65.7839 12.927 66.0751 12.1875 66.075ZM20.1375 50.7375C20.0541 50.8463 19.946 50.9337 19.8221 50.9924C19.6982 51.0511 19.562 51.0794 19.425 51.075H15C13.1857 51.0942 11.426 50.455 10.0469 49.2759C8.66785 48.0968 7.76299 46.4577 7.5 44.6625C7.48123 44.5287 7.49161 44.3923 7.53045 44.2629C7.56929 44.1334 7.63565 44.0139 7.725 43.9125C7.90965 43.7117 8.16518 43.5907 8.4375 43.575H16.875C17.4057 43.6009 17.915 43.7919 18.3318 44.1213C18.7487 44.4508 19.0522 44.9022 19.2 45.4125L20.325 49.9125C20.3606 50.0551 20.3622 50.204 20.3296 50.3474C20.297 50.4907 20.2312 50.6243 20.1375 50.7375ZM60 49.8L57.975 55.95C57.352 57.8121 56.1579 59.4305 54.5623 60.575C52.9668 61.7194 51.0511 62.3318 49.0875 62.325H41.025C39.0614 62.3318 37.1457 61.7194 35.5502 60.575C33.9546 59.4305 32.7605 57.8121 32.1375 55.95L30 49.8C29.8953 49.522 29.8611 49.2224 29.9004 48.928C29.9396 48.6335 30.0512 48.3534 30.225 48.1125C30.4036 47.872 30.6352 47.6758 30.9018 47.5392C31.1684 47.4026 31.463 47.3293 31.7625 47.325H58.0125C58.312 47.3293 58.6066 47.4026 58.8732 47.5392C59.1398 47.6758 59.3714 47.872 59.55 48.1125C59.7621 48.3325 59.9146 48.6028 59.9934 48.898C60.0721 49.1932 60.0744 49.5037 60 49.8ZM69.1875 31.9875C69.1004 32.0921 68.9915 32.1765 68.8684 32.2348C68.7454 32.2931 68.6111 32.3239 68.475 32.325H21.6375C21.5014 32.3239 21.3671 32.2931 21.244 32.2348C21.121 32.1765 21.0121 32.0921 20.925 31.9875C20.8626 31.8723 20.83 31.7435 20.83 31.6125C20.83 31.4815 20.8626 31.3527 20.925 31.2375L23.2875 19.425C23.4628 18.5652 23.9341 17.7941 24.6193 17.246C25.3045 16.6978 26.1602 16.4073 27.0375 16.425H63.4875C64.3648 16.4073 65.2205 16.6978 65.9057 17.246C66.5909 17.7941 67.0622 18.5652 67.2375 19.425L69.6 31.2375C69.6016 31.4016 69.5518 31.5622 69.4577 31.6966C69.3636 31.8311 69.2298 31.9328 69.075 31.9875H69.1875ZM70.6875 51.075C70.5505 51.0794 70.4143 51.0511 70.2904 50.9924C70.1665 50.9337 70.0584 50.8463 69.975 50.7375C69.8813 50.6243 69.8155 50.4907 69.7829 50.3474C69.7503 50.204 69.7519 50.0551 69.7875 49.9125L70.9125 45.4125C71.0603 44.9022 71.3638 44.4508 71.7807 44.1213C72.1975 43.7919 72.7068 43.6009 73.2375 43.575H81.6C81.8723 43.5907 82.1279 43.7117 82.3125 43.9125C82.4018 44.0139 82.4682 44.1334 82.507 44.2629C82.5459 44.3923 82.5563 44.5287 82.5375 44.6625C82.2745 46.4577 81.3696 48.0968 79.9906 49.2759C78.6115 50.455 76.8518 51.0942 75.0375 51.075H70.6875ZM86.3625 62.325V64.2C86.3625 64.6973 86.165 65.1742 85.8133 65.5258C85.4617 65.8775 84.9848 66.075 84.4875 66.075H77.8125C77.073 66.0751 76.3633 65.7839 75.8369 65.2645C75.3105 64.7452 75.0099 64.0394 75 63.3C74.9999 62.5506 75.295 61.8313 75.8214 61.2979C76.3478 60.7645 77.0631 60.4599 77.8125 60.45H84.375C84.8723 60.45 85.3492 60.6475 85.7008 60.9992C86.0525 61.3508 86.25 61.8277 86.25 62.325H86.3625Z" fill="#FE950B"/>
</svg>
