<svg width="80" height="80" viewBox="0 0 80 80" fill="none" xmlns="http://www.w3.org/2000/svg">
<g clip-path="url(#clip0_9_2129)">
<path d="M0.625 16.375C0.625 12.0437 4.16875 8.5 8.5 8.5H71.5C73.5886 8.5 75.5916 9.32968 77.0685 10.8065C78.5453 12.2834 79.375 14.2864 79.375 16.375V63.625C79.375 65.7136 78.5453 67.7166 77.0685 69.1935C75.5916 70.6703 73.5886 71.5 71.5 71.5H8.5C6.41142 71.5 4.40838 70.6703 2.93153 69.1935C1.45469 67.7166 0.625 65.7136 0.625 63.625V16.375ZM24.25 16.375V63.625H55.75V16.375H24.25ZM8.5 20.3125V28.1875H16.375V20.3125H8.5ZM8.5 36.0625V43.9375H16.375V36.0625H8.5ZM8.5 51.8125V59.6875H16.375V51.8125H8.5ZM63.625 20.3125V28.1875H71.5V20.3125H63.625ZM63.625 36.0625V43.9375H71.5V36.0625H63.625ZM63.625 51.8125V59.6875H71.5V51.8125H63.625ZM32.125 28.1875L51.8125 40L32.125 51.8125V28.1875Z" fill="#FE950B"/>
</g>
<defs>
<clipPath id="clip0_9_2129">
<rect width="78.75" height="78.75" fill="white" transform="translate(0.625 0.625)"/>
</clipPath>
</defs>
</svg>
