<svg width="90" height="90" viewBox="0 0 90 90" fill="none" xmlns="http://www.w3.org/2000/svg">
<path d="M35.1262 8.4375H54.8738C58.9688 8.4375 62.2163 8.4375 64.83 8.65125C67.5075 8.86875 69.7687 9.32625 71.8387 10.3762C75.1899 12.0857 77.9138 14.8122 79.62 18.165C80.6738 20.2275 81.1313 22.4925 81.3488 25.17C81.5625 27.7838 81.5625 31.0312 81.5625 35.1262V54.8738C81.5625 58.9688 81.5625 62.2163 81.3488 64.83C81.1313 67.5075 80.6738 69.7687 79.6237 71.8387C77.9153 75.1893 75.1902 77.9132 71.8387 79.62C69.7687 80.6738 67.5075 81.1313 64.83 81.3488C62.2163 81.5625 58.9688 81.5625 54.8738 81.5625H35.1262C31.0312 81.5625 27.7838 81.5625 25.17 81.3488C22.4925 81.1313 20.2312 80.6738 18.165 79.6237C14.813 77.9159 12.0878 75.1907 10.38 71.8387C9.32625 69.7687 8.86875 67.5075 8.65125 64.83C8.4375 62.2163 8.4375 58.9688 8.4375 54.8738V35.1262C8.4375 31.0312 8.4375 27.7838 8.65125 25.17C8.86875 22.4925 9.32625 20.2312 10.3762 18.165C12.085 14.8124 14.8116 12.0872 18.165 10.38C20.2275 9.32625 22.4925 8.86875 25.17 8.65125C27.7838 8.4375 31.0312 8.4375 35.1262 8.4375ZM35.625 25.7812C35.625 25.0353 35.3287 24.32 34.8012 23.7925C34.2738 23.2651 33.5584 22.9688 32.8125 22.9688C32.0666 22.9688 31.3512 23.2651 30.8238 23.7925C30.2963 24.32 30 25.0353 30 25.7812V30.4688H25.3125C24.5666 30.4688 23.8512 30.7651 23.3238 31.2925C22.7963 31.82 22.5 32.5353 22.5 33.2812C22.5 34.0272 22.7963 34.7425 23.3238 35.27C23.8512 35.7974 24.5666 36.0938 25.3125 36.0938H30V40.7812C30 41.5272 30.2963 42.2425 30.8238 42.77C31.3512 43.2974 32.0666 43.5938 32.8125 43.5938C33.5584 43.5938 34.2738 43.2974 34.8012 42.77C35.3287 42.2425 35.625 41.5272 35.625 40.7812V36.0938H40.3125C41.0584 36.0938 41.7738 35.7974 42.3012 35.27C42.8287 34.7425 43.125 34.0272 43.125 33.2812C43.125 32.5353 42.8287 31.82 42.3012 31.2925C41.7738 30.7651 41.0584 30.4688 40.3125 30.4688H35.625V25.7812ZM51.5625 25.7812C50.8166 25.7812 50.1012 26.0776 49.5738 26.605C49.0463 27.1325 48.75 27.8478 48.75 28.5938C48.75 29.3397 49.0463 30.055 49.5738 30.5825C50.1012 31.1099 50.8166 31.4062 51.5625 31.4062H64.6875C65.4334 31.4062 66.1488 31.1099 66.6762 30.5825C67.2037 30.055 67.5 29.3397 67.5 28.5938C67.5 27.8478 67.2037 27.1325 66.6762 26.605C66.1488 26.0776 65.4334 25.7812 64.6875 25.7812H51.5625ZM48.75 37.9688C48.75 39.5212 50.01 40.7812 51.5625 40.7812H64.6875C65.4334 40.7812 66.1488 40.4849 66.6762 39.9575C67.2037 39.43 67.5 38.7147 67.5 37.9688C67.5 37.2228 67.2037 36.5075 66.6762 35.98C66.1488 35.4526 65.4334 35.1562 64.6875 35.1562H51.5625C50.8166 35.1562 50.1012 35.4526 49.5738 35.98C49.0463 36.5075 48.75 37.2228 48.75 37.9688ZM54.8625 51.6225C54.605 51.3462 54.2945 51.1245 53.9495 50.9708C53.6045 50.8171 53.2321 50.7344 52.8545 50.7278C52.4768 50.7211 52.1017 50.7906 51.7515 50.932C51.4013 51.0735 51.0832 51.284 50.8161 51.5511C50.549 51.8182 50.3385 52.1363 50.197 52.4865C50.0556 52.8367 49.9861 53.2118 49.9928 53.5895C49.9994 53.9671 50.0821 54.3395 50.2358 54.6845C50.3895 55.0295 50.6112 55.34 50.8875 55.5975L54.2025 58.9163L50.8875 62.2312C50.6112 62.4887 50.3895 62.7992 50.2358 63.1442C50.0821 63.4892 49.9994 63.8617 49.9928 64.2393C49.9861 64.6169 50.0556 64.992 50.197 65.3422C50.3385 65.6924 50.549 66.0106 50.8161 66.2776C51.0832 66.5447 51.4013 66.7553 51.7515 66.8967C52.1017 67.0382 52.4768 67.1076 52.8545 67.101C53.2321 67.0943 53.6045 67.0117 53.9495 66.8579C54.2945 66.7042 54.605 66.4826 54.8625 66.2063L58.1775 62.8913L61.4925 66.2063C62.0257 66.7031 62.7308 66.9735 63.4595 66.9607C64.1881 66.9478 64.8833 66.6526 65.3986 66.1373C65.9139 65.622 66.2091 64.9268 66.2219 64.1982C66.2348 63.4696 65.9643 62.7644 65.4675 62.2312L62.1563 58.9163L65.4712 55.6012C65.968 55.0681 66.2385 54.3629 66.2257 53.6343C66.2128 52.9057 65.9176 52.2105 65.4023 51.6952C64.887 51.1799 64.1918 50.8847 63.4632 50.8718C62.7346 50.859 62.0294 51.1295 61.4963 51.6263L58.1775 54.9375L54.8625 51.6225ZM23.4375 58.5938C23.4375 60.1463 24.6975 61.4062 26.25 61.4062H39.375C40.1209 61.4062 40.8363 61.1099 41.3637 60.5825C41.8912 60.055 42.1875 59.3397 42.1875 58.5938C42.1875 57.8478 41.8912 57.1325 41.3637 56.605C40.8363 56.0776 40.1209 55.7812 39.375 55.7812H26.25C25.5041 55.7812 24.7887 56.0776 24.2613 56.605C23.7338 57.1325 23.4375 57.8478 23.4375 58.5938Z" fill="#FE950B"/>
</svg>
