<svg width="90" height="90" viewBox="0 0 90 90" fill="none" xmlns="http://www.w3.org/2000/svg">
<path opacity="0.3" d="M26.2875 35.5875L41.25 25.125V19.875L36.1875 16.3125C29.4175 18.4406 23.6063 22.872 19.7625 28.8375L21.225 33.8625L26.2875 35.5875ZM18.7875 40.95L15.0375 43.6875C15.0375 44.1375 15 44.55 15 45C15 52.4625 17.7375 59.2875 22.275 64.5375L26.55 64.1625L29.5125 59.025L24 42.75L18.7875 40.95ZM68.775 33.8625L70.2375 28.8375C66.4009 22.8654 60.587 18.432 53.8125 16.3125L48.75 19.875V25.125L63.7125 35.5875L68.775 33.8625ZM31.3875 41.175L36.4875 56.25H53.5125L58.6125 41.175L45 31.65L31.3875 41.175ZM35.4375 63.75L33.0375 67.9125L35.625 73.5C38.5875 74.4375 41.7375 75 45 75C48.2625 75 51.4125 74.4375 54.375 73.4625L56.9625 67.875L54.5625 63.75H35.4375ZM74.925 43.6875L71.175 40.95L66 42.75L60.525 59.025L63.4875 64.1625L67.7625 64.5375C72.2625 59.2875 75 52.4625 75 45C75 44.55 74.9625 44.1375 74.925 43.6875Z" fill="#FE950B"/>
<path d="M45 7.5C24.3 7.5 7.5 24.3 7.5 45C7.5 65.7 24.3 82.5 45 82.5C65.7 82.5 82.5 65.7 82.5 45C82.5 24.3 65.7 7.5 45 7.5ZM48.75 19.875L53.8125 16.3125C60.5975 18.4116 66.4177 22.8499 70.2375 28.8375L68.775 33.8625L63.7125 35.5875L48.75 25.125V19.875ZM36.1875 16.3125L41.25 19.875V25.125L26.2875 35.5875L21.225 33.8625L19.7625 28.8375C23.6063 22.872 29.4175 18.4406 36.1875 16.3125ZM26.55 64.1625L22.275 64.5375C17.5748 59.1145 14.9913 52.1764 15 45C15 44.55 15.0375 44.1375 15.075 43.6875L18.825 40.95L24 42.75L29.475 59.025L26.55 64.1625ZM54.375 73.4625C51.4125 74.4375 48.2625 75 45 75C41.7375 75 38.5875 74.4375 35.625 73.4625L33.0375 67.875L35.4375 63.75H54.6L57 67.9125L54.375 73.4625ZM53.5125 56.25H36.4875L31.425 41.175L45 31.65L58.6125 41.175L53.5125 56.25ZM67.725 64.5375L63.45 64.1625L60.4875 59.025L65.9625 42.75L71.175 40.9875L74.925 43.725C74.9625 44.1375 75 44.55 75 45C75 52.4625 72.2625 59.2875 67.725 64.5375Z" fill="#FE950B"/>
</svg>
